<?xml version="1.0" encoding="UTF-8" standalone="no"?>
<!DOCTYPE svg PUBLIC "-//W3C//DTD SVG 1.1//EN"
 "http://www.w3.org/Graphics/SVG/1.1/DTD/svg11.dtd">
<!-- Generated by graphviz version 8.0.5 (20230430.1635)
 -->
<!-- Title: D Pages: 1 -->
<svg width="257pt" height="188pt"
 viewBox="0.00 0.00 256.88 188.00" xmlns="http://www.w3.org/2000/svg" xmlns:xlink="http://www.w3.org/1999/xlink">
<g id="graph0" class="graph" transform="scale(1 1) rotate(0) translate(4 184)">
<title>D</title>
<polygon fill="white" stroke="none" points="-4,4 -4,-184 252.88,-184 252.88,4 -4,4"/>
<!-- redis -->
<g id="node1" class="node">
<title>redis</title>
<polygon fill="lightgoldenrodyellow" stroke="black" points="72.75,-180 31.5,-180 31.5,-144 72.75,-144 72.75,-180"/>
<text text-anchor="middle" x="52.12" y="-156.55" font-family="Times,serif" font-size="16.00">redis</text>
</g>
<!-- redis&#45;worker -->
<g id="node2" class="node">
<title>redis&#45;worker</title>
<polygon fill="lightgoldenrodyellow" stroke="black" points="104.25,-108 0,-108 0,-72 104.25,-72 104.25,-108"/>
<text text-anchor="middle" x="52.12" y="-84.55" font-family="Times,serif" font-size="16.00">redis&#45;worker</text>
</g>
<!-- redis&#45;&gt;redis&#45;worker -->
<g id="edge1" class="edge">
<title>redis&#45;&gt;redis&#45;worker</title>
<path fill="none" stroke="black" d="M52.12,-143.7C52.12,-136.24 52.12,-127.32 52.12,-118.97"/>
<polygon fill="black" stroke="black" points="55.63,-119.1 52.12,-109.1 48.63,-119.1 55.63,-119.1"/>
</g>
<!-- backend -->
<g id="node4" class="node">
<title>backend</title>
<polygon fill="lightgoldenrodyellow" stroke="black" points="87,-36 17.25,-36 17.25,0 87,0 87,-36"/>
<text text-anchor="middle" x="52.12" y="-12.55" font-family="Times,serif" font-size="16.00">backend</text>
</g>
<!-- redis&#45;worker&#45;&gt;backend -->
<g id="edge3" class="edge">
<title>redis&#45;worker&#45;&gt;backend</title>
<path fill="none" stroke="black" d="M52.12,-71.7C52.12,-64.24 52.12,-55.32 52.12,-46.97"/>
<polygon fill="black" stroke="black" points="55.63,-47.1 52.12,-37.1 48.63,-47.1 55.63,-47.1"/>
</g>
<!-- docs -->
<g id="node3" class="node">
<title>docs</title>
<polygon fill="lightgoldenrodyellow" stroke="black" points="248.88,-36 211.38,-36 211.38,0 248.88,0 248.88,-36"/>
<text text-anchor="middle" x="230.12" y="-12.55" font-family="Times,serif" font-size="16.00">docs</text>
</g>
<!-- frontend -->
<g id="node5" class="node">
<title>frontend</title>
<polygon fill="lightgoldenrodyellow" stroke="black" points="193.75,-36 122.5,-36 122.5,0 193.75,0 193.75,-36"/>
<text text-anchor="middle" x="158.12" y="-12.55" font-family="Times,serif" font-size="16.00">frontend</text>
</g>
<!-- backend&#45;&gt;frontend -->
<g id="edge2" class="edge">
<title>backend&#45;&gt;frontend</title>
<path fill="none" stroke="black" stroke-dasharray="5,2" d="M87.32,-18C95.31,-18 103.29,-18 111.28,-18"/>
<polygon fill="black" stroke="black" points="111.17,-21.5 121.17,-18 111.17,-14.5 111.17,-21.5"/>
</g>
</g>
</svg>
