<?xml version="1.0" encoding="us-ascii" standalone="no"?><svg xmlns="http://www.w3.org/2000/svg" xmlns:xlink="http://www.w3.org/1999/xlink" contentStyleType="text/css" height="2613px" preserveAspectRatio="none" style="width:501px;height:2613px;background:#FFFFFF;" version="1.1" viewBox="0 0 501 2613" width="501px" zoomAndPan="magnify"><defs/><g><ellipse cx="186.75" cy="20" fill="#222222" rx="10" ry="10" style="stroke:#222222;stroke-width:1.0;"/><rect fill="#F1F1F1" height="47.9375" rx="12.5" ry="12.5" style="stroke:#181818;stroke-width:0.5;" width="125" x="124.25" y="50"/><text fill="#000000" font-family="sans-serif" font-size="12" font-weight="bold" lengthAdjust="spacing" textLength="27" x="173.25" y="71.1387">WIP</text><text fill="#000000" font-family="sans-serif" font-size="12" lengthAdjust="spacing" textLength="105" x="134.25" y="85.1074">Processing += 1</text><rect fill="none" height="742.3125" style="stroke:#000000;stroke-width:1.5;" width="351.5" x="11" y="107.9375"/><path d="M184,107.9375 L184,114.9063 L174,124.9063 L11,124.9063 " fill="none" style="stroke:#000000;stroke-width:1.5;"/><text fill="#000000" font-family="sans-serif" font-size="12" lengthAdjust="spacing" textLength="163" x="14" y="120.0762">Decalcification (per block)</text><polygon fill="#FFFFCC" points="162.75,141.9063,210.75,141.9063,222.75,153.9063,210.75,165.9063,162.75,165.9063,150.75,153.9063,162.75,141.9063" style="stroke:#181818;stroke-width:0.5;"/><text fill="#000000" font-family="sans-serif" font-size="12" lengthAdjust="spacing" textLength="48" x="162.75" y="158.0605">Decalc?</text><polygon fill="#DA70D6" points="25,203.8438,132,203.8438,122,234.7969,132,265.75,25,265.75" style="stroke:#181818;stroke-width:0.5;"/><text fill="#000000" font-family="sans-serif" font-size="12" font-weight="bold" lengthAdjust="spacing" textLength="39" x="59" y="224.9824">Seize</text><text fill="#000000" font-family="sans-serif" font-size="12" lengthAdjust="spacing" textLength="30" x="63.5" y="238.9512">BMS,</text><text fill="#000000" font-family="sans-serif" font-size="12" lengthAdjust="spacing" textLength="77" x="40" y="252.9199">Bone staton</text><rect fill="#98FB98" height="61.9063" rx="12.5" ry="12.5" style="stroke:#181818;stroke-width:0.5;" width="91" x="28" y="299.7188"/><text fill="#000000" font-family="sans-serif" font-size="12" font-weight="bold" lengthAdjust="spacing" textLength="40" x="53.5" y="320.8574">Delay</text><text fill="#000000" font-family="sans-serif" font-size="12" lengthAdjust="spacing" textLength="71" x="38" y="334.8262">(Load bone</text><text fill="#000000" font-family="sans-serif" font-size="12" lengthAdjust="spacing" textLength="49" x="49" y="348.7949">station)</text><polygon fill="#DA70D6" points="35,396.625,112,396.625,122,420.5938,112,444.5625,35,444.5625" style="stroke:#181818;stroke-width:0.5;"/><text fill="#000000" font-family="sans-serif" font-size="12" font-weight="bold" lengthAdjust="spacing" textLength="57" x="50" y="417.7637">Release</text><text fill="#000000" font-family="sans-serif" font-size="12" lengthAdjust="spacing" textLength="26" x="65.5" y="431.7324">BMS</text><rect fill="#98FB98" height="47.9375" rx="12.5" ry="12.5" style="stroke:#181818;stroke-width:0.5;" width="72" x="37.5" y="479.5625"/><text fill="#000000" font-family="sans-serif" font-size="12" font-weight="bold" lengthAdjust="spacing" textLength="40" x="53.5" y="500.7012">Delay</text><text fill="#000000" font-family="sans-serif" font-size="12" lengthAdjust="spacing" textLength="52" x="47.5" y="514.6699">(Decalc)</text><polygon fill="#DA70D6" points="44,562.5,113,562.5,103,586.4688,113,610.4375,44,610.4375" style="stroke:#181818;stroke-width:0.5;"/><text fill="#000000" font-family="sans-serif" font-size="12" font-weight="bold" lengthAdjust="spacing" textLength="39" x="59" y="583.6387">Seize</text><text fill="#000000" font-family="sans-serif" font-size="12" lengthAdjust="spacing" textLength="26" x="65.5" y="597.6074">BMS</text><rect fill="#98FB98" height="61.9063" rx="12.5" ry="12.5" style="stroke:#181818;stroke-width:0.5;" width="105" x="21" y="645.4375"/><text fill="#000000" font-family="sans-serif" font-size="12" font-weight="bold" lengthAdjust="spacing" textLength="40" x="53.5" y="666.5762">Delay</text><text fill="#000000" font-family="sans-serif" font-size="12" lengthAdjust="spacing" textLength="85" x="31" y="680.5449">(Unload bone</text><text fill="#000000" font-family="sans-serif" font-size="12" lengthAdjust="spacing" textLength="49" x="49" y="694.5137">station)</text><polygon fill="#DA70D6" points="23.5,742.3438,123.5,742.3438,133.5,773.2969,123.5,804.25,23.5,804.25" style="stroke:#181818;stroke-width:0.5;"/><text fill="#000000" font-family="sans-serif" font-size="12" font-weight="bold" lengthAdjust="spacing" textLength="57" x="50" y="763.4824">Release</text><text fill="#000000" font-family="sans-serif" font-size="12" lengthAdjust="spacing" textLength="30" x="63.5" y="777.4512">BMS,</text><text fill="#000000" font-family="sans-serif" font-size="12" lengthAdjust="spacing" textLength="80" x="38.5" y="791.4199">Bone station</text><polygon fill="#DA70D6" points="207,203.8438,276,203.8438,266,227.8125,276,251.7813,207,251.7813" style="stroke:#181818;stroke-width:0.5;"/><text fill="#000000" font-family="sans-serif" font-size="12" font-weight="bold" lengthAdjust="spacing" textLength="39" x="222" y="224.9824">Seize</text><text fill="#000000" font-family="sans-serif" font-size="12" lengthAdjust="spacing" textLength="26" x="228.5" y="238.9512">BMS</text><rect fill="#98FB98" height="47.9375" rx="12.5" ry="12.5" style="stroke:#181818;stroke-width:0.5;" width="113" x="180" y="285.75"/><text fill="#000000" font-family="sans-serif" font-size="12" font-weight="bold" lengthAdjust="spacing" textLength="40" x="216.5" y="306.8887">Delay</text><text fill="#000000" font-family="sans-serif" font-size="12" lengthAdjust="spacing" textLength="93" x="190" y="320.8574">(Place in oven)</text><polygon fill="#DA70D6" points="198,368.6875,275,368.6875,285,392.6563,275,416.625,198,416.625" style="stroke:#181818;stroke-width:0.5;"/><text fill="#000000" font-family="sans-serif" font-size="12" font-weight="bold" lengthAdjust="spacing" textLength="57" x="213" y="389.8262">Release</text><text fill="#000000" font-family="sans-serif" font-size="12" lengthAdjust="spacing" textLength="26" x="228.5" y="403.7949">BMS</text><rect fill="#98FB98" height="47.9375" rx="12.5" ry="12.5" style="stroke:#181818;stroke-width:0.5;" width="72" x="200.5" y="451.625"/><text fill="#000000" font-family="sans-serif" font-size="12" font-weight="bold" lengthAdjust="spacing" textLength="40" x="216.5" y="472.7637">Delay</text><text fill="#000000" font-family="sans-serif" font-size="12" lengthAdjust="spacing" textLength="52" x="210.5" y="486.7324">(Decalc)</text><polygon fill="#DA70D6" points="207,534.5625,276,534.5625,266,558.5313,276,582.5,207,582.5" style="stroke:#181818;stroke-width:0.5;"/><text fill="#000000" font-family="sans-serif" font-size="12" font-weight="bold" lengthAdjust="spacing" textLength="39" x="222" y="555.7012">Seize</text><text fill="#000000" font-family="sans-serif" font-size="12" lengthAdjust="spacing" textLength="26" x="228.5" y="569.6699">BMS</text><rect fill="#98FB98" height="47.9375" rx="12.5" ry="12.5" style="stroke:#181818;stroke-width:0.5;" width="126" x="173.5" y="617.5"/><text fill="#000000" font-family="sans-serif" font-size="12" font-weight="bold" lengthAdjust="spacing" textLength="40" x="216.5" y="638.6387">Delay</text><text fill="#000000" font-family="sans-serif" font-size="12" lengthAdjust="spacing" textLength="106" x="183.5" y="652.6074">(Take from oven)</text><polygon fill="#DA70D6" points="198,700.4375,275,700.4375,285,724.4063,275,748.375,198,748.375" style="stroke:#181818;stroke-width:0.5;"/><text fill="#000000" font-family="sans-serif" font-size="12" font-weight="bold" lengthAdjust="spacing" textLength="57" x="213" y="721.5762">Release</text><text fill="#000000" font-family="sans-serif" font-size="12" lengthAdjust="spacing" textLength="26" x="228.5" y="735.5449">BMS</text><polygon fill="#FFFFCC" points="186.75,814.25,186.75,814.25,198.75,826.25,186.75,838.25,186.75,838.25,174.75,826.25,186.75,814.25" style="stroke:#181818;stroke-width:0.5;"/><rect fill="#87CEFA" height="47.9375" rx="12.5" ry="12.5" style="stroke:#181818;stroke-width:0.5;" width="165" x="104.25" y="870.25"/><text fill="#000000" font-family="sans-serif" font-size="12" font-weight="bold" lengthAdjust="spacing" textLength="40" x="135.75" y="891.3887">Batch</text><text fill="#000000" font-family="sans-serif" font-size="12" lengthAdjust="spacing" textLength="58" x="179.75" y="891.3887">blocks by</text><text fill="#000000" font-family="sans-serif" font-size="12" lengthAdjust="spacing" textLength="145" x="114.25" y="905.3574">processing programme</text><rect fill="none" height="529.4688" style="stroke:#000000;stroke-width:1.5;" width="415.5" x="74.75" y="928.1875"/><path d="M345.75,928.1875 L345.75,935.1563 L335.75,945.1563 L74.75,945.1563 " fill="none" style="stroke:#000000;stroke-width:1.5;"/><text fill="#000000" font-family="sans-serif" font-size="12" lengthAdjust="spacing" textLength="261" x="77.75" y="940.3262">Processing machine (per batch of blocks)</text><path d="M297.25,981.125 L297.25,989.1094 L277.25,993.1094 L297.25,997.1094 L297.25,1005.0938 A0,0 0 0 0 297.25,1005.0938 L480.25,1005.0938 A0,0 0 0 0 480.25,1005.0938 L480.25,991.125 L470.25,981.125 L297.25,981.125 A0,0 0 0 0 297.25,981.125 " fill="#EFEFFF" style="stroke:#181818;stroke-width:0.5;"/><path d="M470.25,981.125 L470.25,991.125 L480.25,991.125 L470.25,981.125 " fill="#EFEFFF" style="stroke:#181818;stroke-width:0.5;"/><text fill="#000000" font-family="sans-serif" font-size="12" lengthAdjust="spacing" textLength="162" x="303.25" y="997.2637">URGENT or default priority</text><polygon fill="#6495ED" points="106.25,962.1563,277.25,962.1563,267.25,993.1094,277.25,1024.0625,106.25,1024.0625" style="stroke:#181818;stroke-width:0.5;"/><text fill="#000000" font-family="sans-serif" font-size="12" font-weight="bold" lengthAdjust="spacing" textLength="39" x="172.25" y="983.2949">Seize</text><text fill="#000000" font-family="sans-serif" font-size="12" lengthAdjust="spacing" textLength="141" x="121.25" y="997.2637">Processing room staff,</text><text fill="#000000" font-family="sans-serif" font-size="12" lengthAdjust="spacing" textLength="126" x="128.75" y="1011.2324">Processing machine</text><rect fill="#98FB98" height="47.9375" rx="12.5" ry="12.5" style="stroke:#181818;stroke-width:0.5;" width="190" x="91.75" y="1044.0625"/><text fill="#000000" font-family="sans-serif" font-size="12" font-weight="bold" lengthAdjust="spacing" textLength="40" x="166.75" y="1065.2012">Delay</text><text fill="#000000" font-family="sans-serif" font-size="12" lengthAdjust="spacing" textLength="170" x="101.75" y="1079.1699">(Load processing machine)</text><polygon fill="#6495ED" points="108.25,1112,265.25,1112,275.25,1135.9688,265.25,1159.9375,108.25,1159.9375" style="stroke:#181818;stroke-width:0.5;"/><text fill="#000000" font-family="sans-serif" font-size="12" font-weight="bold" lengthAdjust="spacing" textLength="57" x="163.25" y="1133.1387">Release</text><text fill="#000000" font-family="sans-serif" font-size="12" lengthAdjust="spacing" textLength="137" x="123.25" y="1147.1074">Processing room staff</text><path d="M256.25,1184.9375 L256.25,1199.9063 L236.25,1203.9063 L256.25,1207.9063 L256.25,1222.875 A0,0 0 0 0 256.25,1222.875 L410.25,1222.875 A0,0 0 0 0 410.25,1222.875 L410.25,1194.9375 L400.25,1184.9375 L256.25,1184.9375 A0,0 0 0 0 256.25,1184.9375 " fill="#EFEFFF" style="stroke:#181818;stroke-width:0.5;"/><path d="M400.25,1184.9375 L400.25,1194.9375 L410.25,1194.9375 L400.25,1184.9375 " fill="#EFEFFF" style="stroke:#181818;stroke-width:0.5;"/><text fill="#000000" font-family="sans-serif" font-size="12" lengthAdjust="spacing" textLength="133" x="262.25" y="1201.0762">Duration depends on</text><text fill="#000000" font-family="sans-serif" font-size="12" lengthAdjust="spacing" textLength="130" x="262.25" y="1215.0449">selected programme</text><rect fill="#98FB98" height="47.9375" rx="12.5" ry="12.5" style="stroke:#181818;stroke-width:0.5;" width="99" x="137.25" y="1179.9375"/><text fill="#000000" font-family="sans-serif" font-size="12" font-weight="bold" lengthAdjust="spacing" textLength="40" x="166.75" y="1201.0762">Delay</text><text fill="#000000" font-family="sans-serif" font-size="12" lengthAdjust="spacing" textLength="79" x="147.25" y="1215.0449">(Processing)</text><path d="M295.25,1259.8594 L295.25,1267.8438 L275.25,1271.8438 L295.25,1275.8438 L295.25,1283.8281 A0,0 0 0 0 295.25,1283.8281 L478.25,1283.8281 A0,0 0 0 0 478.25,1283.8281 L478.25,1269.8594 L468.25,1259.8594 L295.25,1259.8594 A0,0 0 0 0 295.25,1259.8594 " fill="#EFEFFF" style="stroke:#181818;stroke-width:0.5;"/><path d="M468.25,1259.8594 L468.25,1269.8594 L478.25,1269.8594 L468.25,1259.8594 " fill="#EFEFFF" style="stroke:#181818;stroke-width:0.5;"/><text fill="#000000" font-family="sans-serif" font-size="12" lengthAdjust="spacing" textLength="162" x="301.25" y="1275.998">URGENT or default priority</text><polygon fill="#6495ED" points="108.25,1247.875,275.25,1247.875,265.25,1271.8438,275.25,1295.8125,108.25,1295.8125" style="stroke:#181818;stroke-width:0.5;"/><text fill="#000000" font-family="sans-serif" font-size="12" font-weight="bold" lengthAdjust="spacing" textLength="39" x="172.25" y="1269.0137">Seize</text><text fill="#000000" font-family="sans-serif" font-size="12" lengthAdjust="spacing" textLength="137" x="123.25" y="1282.9824">Processing room staff</text><rect fill="#98FB98" height="47.9375" rx="12.5" ry="12.5" style="stroke:#181818;stroke-width:0.5;" width="204" x="84.75" y="1315.8125"/><text fill="#000000" font-family="sans-serif" font-size="12" font-weight="bold" lengthAdjust="spacing" textLength="40" x="166.75" y="1336.9512">Delay</text><text fill="#000000" font-family="sans-serif" font-size="12" lengthAdjust="spacing" textLength="184" x="94.75" y="1350.9199">(Unload processing machine)</text><polygon fill="#6495ED" points="106.25,1383.75,267.25,1383.75,277.25,1414.7031,267.25,1445.6563,106.25,1445.6563" style="stroke:#181818;stroke-width:0.5;"/><text fill="#000000" font-family="sans-serif" font-size="12" font-weight="bold" lengthAdjust="spacing" textLength="57" x="163.25" y="1404.8887">Release</text><text fill="#000000" font-family="sans-serif" font-size="12" lengthAdjust="spacing" textLength="141" x="121.25" y="1418.8574">Processing room staff,</text><text fill="#000000" font-family="sans-serif" font-size="12" lengthAdjust="spacing" textLength="126" x="128.75" y="1432.8262">Processing machine</text><rect fill="#87CEFA" height="33.9688" rx="12.5" ry="12.5" style="stroke:#181818;stroke-width:0.5;" width="123" x="125.25" y="1477.6563"/><text fill="#000000" font-family="sans-serif" font-size="12" font-weight="bold" lengthAdjust="spacing" textLength="59" x="135.25" y="1498.7949">Unbatch</text><text fill="#000000" font-family="sans-serif" font-size="12" lengthAdjust="spacing" textLength="40" x="198.25" y="1498.7949">blocks</text><rect fill="none" height="501.5313" style="stroke:#000000;stroke-width:1.5;" width="191" x="96.25" y="1521.9551"/><path d="M277.25,1521.9551 L277.25,1528.9238 L267.25,1538.9238 L96.25,1538.9238 " fill="none" style="stroke:#000000;stroke-width:1.5;"/><text fill="#000000" font-family="sans-serif" font-size="12" lengthAdjust="spacing" textLength="171" x="99.25" y="1534.0938">Embed and trim (per block)</text><polygon fill="#DDA0DD" points="108.25,1555.9238,275.25,1555.9238,265.25,1579.8926,275.25,1603.8613,108.25,1603.8613" style="stroke:#181818;stroke-width:0.5;"/><text fill="#000000" font-family="sans-serif" font-size="12" font-weight="bold" lengthAdjust="spacing" textLength="39" x="172.25" y="1577.0625">Seize</text><text fill="#000000" font-family="sans-serif" font-size="12" lengthAdjust="spacing" textLength="137" x="123.25" y="1591.0313">Processing room staff</text><rect fill="#98FB98" height="47.9375" rx="12.5" ry="12.5" style="stroke:#181818;stroke-width:0.5;" width="137" x="118.25" y="1623.8613"/><text fill="#000000" font-family="sans-serif" font-size="12" font-weight="bold" lengthAdjust="spacing" textLength="40" x="166.75" y="1645">Delay</text><text fill="#000000" font-family="sans-serif" font-size="12" lengthAdjust="spacing" textLength="117" x="128.25" y="1658.9688">(Embed wax block)</text><polygon fill="#DDA0DD" points="108.25,1691.7988,265.25,1691.7988,275.25,1715.7676,265.25,1739.7363,108.25,1739.7363" style="stroke:#181818;stroke-width:0.5;"/><text fill="#000000" font-family="sans-serif" font-size="12" font-weight="bold" lengthAdjust="spacing" textLength="57" x="163.25" y="1712.9375">Release</text><text fill="#000000" font-family="sans-serif" font-size="12" lengthAdjust="spacing" textLength="137" x="123.25" y="1726.9063">Processing room staff</text><rect fill="#98FB98" height="47.9375" rx="12.5" ry="12.5" style="stroke:#181818;stroke-width:0.5;" width="94" x="139.75" y="1759.7363"/><text fill="#000000" font-family="sans-serif" font-size="12" font-weight="bold" lengthAdjust="spacing" textLength="40" x="166.75" y="1780.875">Delay</text><text fill="#000000" font-family="sans-serif" font-size="12" lengthAdjust="spacing" textLength="74" x="149.75" y="1794.8438">(Cool-down)</text><polygon fill="#DDA0DD" points="108.25,1827.6738,275.25,1827.6738,265.25,1851.6426,275.25,1875.6113,108.25,1875.6113" style="stroke:#181818;stroke-width:0.5;"/><text fill="#000000" font-family="sans-serif" font-size="12" font-weight="bold" lengthAdjust="spacing" textLength="39" x="172.25" y="1848.8125">Seize</text><text fill="#000000" font-family="sans-serif" font-size="12" lengthAdjust="spacing" textLength="137" x="123.25" y="1862.7813">Processing room staff</text><rect fill="#98FB98" height="47.9375" rx="12.5" ry="12.5" style="stroke:#181818;stroke-width:0.5;" width="130" x="121.75" y="1895.6113"/><text fill="#000000" font-family="sans-serif" font-size="12" font-weight="bold" lengthAdjust="spacing" textLength="40" x="166.75" y="1916.75">Delay</text><text fill="#000000" font-family="sans-serif" font-size="12" lengthAdjust="spacing" textLength="110" x="131.75" y="1930.7188">(Trim excess wax)</text><polygon fill="#DDA0DD" points="108.25,1963.5488,265.25,1963.5488,275.25,1987.5176,265.25,2011.4863,108.25,2011.4863" style="stroke:#181818;stroke-width:0.5;"/><text fill="#000000" font-family="sans-serif" font-size="12" font-weight="bold" lengthAdjust="spacing" textLength="57" x="163.25" y="1984.6875">Release</text><text fill="#000000" font-family="sans-serif" font-size="12" lengthAdjust="spacing" textLength="137" x="123.25" y="1998.6563">Processing room staff</text><rect fill="#87CEFA" height="33.9688" rx="12.5" ry="12.5" style="stroke:#181818;stroke-width:0.5;" width="196" x="88.75" y="2043.4863"/><text fill="#000000" font-family="sans-serif" font-size="12" font-weight="bold" lengthAdjust="spacing" textLength="50" x="98.75" y="2064.625">Collate</text><text fill="#000000" font-family="sans-serif" font-size="12" lengthAdjust="spacing" textLength="122" x="152.75" y="2064.625">blocks by specimen</text><rect fill="#F1F1F1" height="47.9375" rx="12.5" ry="12.5" style="stroke:#181818;stroke-width:0.5;" width="119" x="127.25" y="2097.4551"/><text fill="#000000" font-family="sans-serif" font-size="12" font-weight="bold" lengthAdjust="spacing" textLength="27" x="173.25" y="2118.5938">WIP</text><text fill="#000000" font-family="sans-serif" font-size="12" lengthAdjust="spacing" textLength="99" x="137.25" y="2132.5625">Processing -= 1</text><rect fill="none" height="404.6719" style="stroke:#000000;stroke-width:1.5;" width="187" x="98.25" y="2155.3926"/><path d="M217.25,2155.3926 L217.25,2162.3613 L207.25,2172.3613 L98.25,2172.3613 " fill="none" style="stroke:#000000;stroke-width:1.5;"/><text fill="#000000" font-family="sans-serif" font-size="12" lengthAdjust="spacing" textLength="109" x="101.25" y="2167.5313">Batch and deliver</text><rect fill="#87CEFA" height="33.9688" rx="12.5" ry="12.5" style="stroke:#181818;stroke-width:0.5;" width="131" x="121.25" y="2238.3457"/><text fill="#000000" font-family="sans-serif" font-size="12" font-weight="bold" lengthAdjust="spacing" textLength="40" x="131.25" y="2259.4844">Batch</text><text fill="#000000" font-family="sans-serif" font-size="12" lengthAdjust="spacing" textLength="67" x="175.25" y="2259.4844">specimens</text><polygon fill="#FFFFCC" points="130.25,2189.3613,243.25,2189.3613,255.25,2201.3613,243.25,2213.3613,130.25,2213.3613,118.25,2201.3613,130.25,2189.3613" style="stroke:#181818;stroke-width:0.5;"/><text fill="#000000" font-family="sans-serif" font-size="12" lengthAdjust="spacing" textLength="16" x="190.75" y="2224.5">no</text><text fill="#000000" font-family="sans-serif" font-size="12" lengthAdjust="spacing" textLength="113" x="130.25" y="2205.5156">Urgent specimen?</text><text fill="#000000" font-family="sans-serif" font-size="12" lengthAdjust="spacing" textLength="21" x="255.25" y="2198.5313">yes</text><polygon fill="#FFFFCC" points="186.75,2292.3145,198.75,2304.3145,186.75,2316.3145,174.75,2304.3145,186.75,2292.3145" style="stroke:#181818;stroke-width:0.5;"/><polygon fill="#DA70D6" points="108.25,2336.3145,275.25,2336.3145,265.25,2360.2832,275.25,2384.252,108.25,2384.252" style="stroke:#181818;stroke-width:0.5;"/><text fill="#000000" font-family="sans-serif" font-size="12" font-weight="bold" lengthAdjust="spacing" textLength="39" x="172.25" y="2357.4531">Seize</text><text fill="#000000" font-family="sans-serif" font-size="12" lengthAdjust="spacing" textLength="137" x="123.25" y="2371.4219">Processing room staff</text><rect fill="#87CEFA" height="61.9063" rx="12.5" ry="12.5" style="stroke:#181818;stroke-width:0.5;" width="112" x="130.75" y="2404.252"/><text fill="#000000" font-family="sans-serif" font-size="12" font-weight="bold" lengthAdjust="spacing" textLength="49" x="162.25" y="2425.3906">Deliver</text><text fill="#000000" font-family="sans-serif" font-size="12" lengthAdjust="spacing" textLength="57" x="158.25" y="2439.3594">to cut-up</text><text fill="#000000" font-family="sans-serif" font-size="12" lengthAdjust="spacing" textLength="88" x="144.75" y="2453.3281">(&amp; return trip)</text><polygon fill="#DA70D6" points="125.25,2486.1582,248.25,2486.1582,258.25,2517.1113,248.25,2548.0645,125.25,2548.0645" style="stroke:#181818;stroke-width:0.5;"/><text fill="#000000" font-family="sans-serif" font-size="12" font-weight="bold" lengthAdjust="spacing" textLength="57" x="163.25" y="2507.2969">Release</text><text fill="#000000" font-family="sans-serif" font-size="12" lengthAdjust="spacing" textLength="43" x="170.25" y="2521.2656">BMS or</text><text fill="#000000" font-family="sans-serif" font-size="12" lengthAdjust="spacing" textLength="103" x="140.25" y="2535.2344">Cut-up assistant</text><ellipse cx="186.75" cy="2591.0645" fill="none" rx="11" ry="11" style="stroke:#222222;stroke-width:1.0;"/><ellipse cx="186.75" cy="2591.0645" fill="#222222" rx="6" ry="6" style="stroke:#111111;stroke-width:1.0;"/><line style="stroke:#181818;stroke-width:1.0;" x1="186.75" x2="186.75" y1="30" y2="50"/><polygon fill="#181818" points="182.75,40,186.75,50,190.75,40,186.75,44" style="stroke:#181818;stroke-width:1.0;"/><line style="stroke:#181818;stroke-width:1.0;" x1="73.5" x2="73.5" y1="265.75" y2="299.7188"/><polygon fill="#181818" points="69.5,289.7188,73.5,299.7188,77.5,289.7188,73.5,293.7188" style="stroke:#181818;stroke-width:1.0;"/><line style="stroke:#181818;stroke-width:1.0;" x1="73.5" x2="73.5" y1="361.625" y2="396.625"/><polygon fill="#181818" points="69.5,386.625,73.5,396.625,77.5,386.625,73.5,390.625" style="stroke:#181818;stroke-width:1.0;"/><line style="stroke:#181818;stroke-width:1.0;" x1="73.5" x2="73.5" y1="444.5625" y2="479.5625"/><polygon fill="#181818" points="69.5,469.5625,73.5,479.5625,77.5,469.5625,73.5,473.5625" style="stroke:#181818;stroke-width:1.0;"/><line style="stroke:#181818;stroke-width:1.0;" x1="73.5" x2="73.5" y1="527.5" y2="562.5"/><polygon fill="#181818" points="69.5,552.5,73.5,562.5,77.5,552.5,73.5,556.5" style="stroke:#181818;stroke-width:1.0;"/><line style="stroke:#181818;stroke-width:1.0;" x1="73.5" x2="73.5" y1="610.4375" y2="645.4375"/><polygon fill="#181818" points="69.5,635.4375,73.5,645.4375,77.5,635.4375,73.5,639.4375" style="stroke:#181818;stroke-width:1.0;"/><line style="stroke:#181818;stroke-width:1.0;" x1="73.5" x2="73.5" y1="707.3438" y2="742.3438"/><polygon fill="#181818" points="69.5,732.3438,73.5,742.3438,77.5,732.3438,73.5,736.3438" style="stroke:#181818;stroke-width:1.0;"/><line style="stroke:#181818;stroke-width:1.0;" x1="236.5" x2="236.5" y1="251.7813" y2="285.75"/><polygon fill="#181818" points="232.5,275.75,236.5,285.75,240.5,275.75,236.5,279.75" style="stroke:#181818;stroke-width:1.0;"/><line style="stroke:#181818;stroke-width:1.0;" x1="236.5" x2="236.5" y1="333.6875" y2="368.6875"/><polygon fill="#181818" points="232.5,358.6875,236.5,368.6875,240.5,358.6875,236.5,362.6875" style="stroke:#181818;stroke-width:1.0;"/><line style="stroke:#181818;stroke-width:1.0;" x1="236.5" x2="236.5" y1="416.625" y2="451.625"/><polygon fill="#181818" points="232.5,441.625,236.5,451.625,240.5,441.625,236.5,445.625" style="stroke:#181818;stroke-width:1.0;"/><line style="stroke:#181818;stroke-width:1.0;" x1="236.5" x2="236.5" y1="499.5625" y2="534.5625"/><polygon fill="#181818" points="232.5,524.5625,236.5,534.5625,240.5,524.5625,236.5,528.5625" style="stroke:#181818;stroke-width:1.0;"/><line style="stroke:#181818;stroke-width:1.0;" x1="236.5" x2="236.5" y1="582.5" y2="617.5"/><polygon fill="#181818" points="232.5,607.5,236.5,617.5,240.5,607.5,236.5,611.5" style="stroke:#181818;stroke-width:1.0;"/><line style="stroke:#181818;stroke-width:1.0;" x1="236.5" x2="236.5" y1="665.4375" y2="700.4375"/><polygon fill="#181818" points="232.5,690.4375,236.5,700.4375,240.5,690.4375,236.5,694.4375" style="stroke:#181818;stroke-width:1.0;"/><line style="stroke:#181818;stroke-width:1.0;" x1="150.75" x2="73.5" y1="153.9063" y2="153.9063"/><line style="stroke:#181818;stroke-width:1.0;" x1="73.5" x2="73.5" y1="153.9063" y2="203.8438"/><polygon fill="#181818" points="69.5,193.8438,73.5,203.8438,77.5,193.8438,73.5,197.8438" style="stroke:#181818;stroke-width:1.0;"/><text fill="#000000" font-family="sans-serif" font-size="12" lengthAdjust="spacing" textLength="80" x="73.5" y="183.0293">Bone station</text><line style="stroke:#181818;stroke-width:1.0;" x1="222.75" x2="319.5" y1="153.9063" y2="153.9063"/><line style="stroke:#181818;stroke-width:1.0;" x1="319.5" x2="319.5" y1="153.9063" y2="826.25"/><line style="stroke:#181818;stroke-width:1.0;" x1="319.5" x2="198.75" y1="826.25" y2="826.25"/><polygon fill="#181818" points="208.75,822.25,198.75,826.25,208.75,830.25,204.75,826.25" style="stroke:#181818;stroke-width:1.0;"/><text fill="#000000" font-family="sans-serif" font-size="12" lengthAdjust="spacing" textLength="33" x="323.5" y="158.0605">None</text><line style="stroke:#181818;stroke-width:1.0;" x1="236.5" x2="236.5" y1="153.9063" y2="203.8438"/><polygon fill="#181818" points="232.5,193.8438,236.5,203.8438,240.5,193.8438,236.5,197.8438" style="stroke:#181818;stroke-width:1.0;"/><text fill="#000000" font-family="sans-serif" font-size="12" lengthAdjust="spacing" textLength="31" x="236.5" y="178.0293">Oven</text><line style="stroke:#181818;stroke-width:1.0;" x1="73.5" x2="73.5" y1="804.25" y2="826.25"/><line style="stroke:#181818;stroke-width:1.0;" x1="73.5" x2="174.75" y1="826.25" y2="826.25"/><polygon fill="#181818" points="164.75,822.25,174.75,826.25,164.75,830.25,168.75,826.25" style="stroke:#181818;stroke-width:1.0;"/><line style="stroke:#181818;stroke-width:1.0;" x1="236.5" x2="236.5" y1="748.375" y2="826.25"/><polygon fill="#181818" points="232.5,816.25,236.5,826.25,240.5,816.25,236.5,820.25" style="stroke:#181818;stroke-width:1.0;"/><line style="stroke:#181818;stroke-width:1.0;" x1="186.75" x2="186.75" y1="97.9375" y2="141.9063"/><polygon fill="#181818" points="182.75,131.9063,186.75,141.9063,190.75,131.9063,186.75,135.9063" style="stroke:#181818;stroke-width:1.0;"/><line style="stroke:#181818;stroke-width:1.0;" x1="186.75" x2="186.75" y1="838.25" y2="870.25"/><polygon fill="#181818" points="182.75,860.25,186.75,870.25,190.75,860.25,186.75,864.25" style="stroke:#181818;stroke-width:1.0;"/><line style="stroke:#181818;stroke-width:1.0;" x1="186.75" x2="186.75" y1="1024.0625" y2="1044.0625"/><polygon fill="#181818" points="182.75,1034.0625,186.75,1044.0625,190.75,1034.0625,186.75,1038.0625" style="stroke:#181818;stroke-width:1.0;"/><line style="stroke:#181818;stroke-width:1.0;" x1="186.75" x2="186.75" y1="1092" y2="1112"/><polygon fill="#181818" points="182.75,1102,186.75,1112,190.75,1102,186.75,1106" style="stroke:#181818;stroke-width:1.0;"/><line style="stroke:#181818;stroke-width:1.0;" x1="186.75" x2="186.75" y1="1159.9375" y2="1179.9375"/><polygon fill="#181818" points="182.75,1169.9375,186.75,1179.9375,190.75,1169.9375,186.75,1173.9375" style="stroke:#181818;stroke-width:1.0;"/><line style="stroke:#181818;stroke-width:1.0;" x1="186.75" x2="186.75" y1="1227.875" y2="1247.875"/><polygon fill="#181818" points="182.75,1237.875,186.75,1247.875,190.75,1237.875,186.75,1241.875" style="stroke:#181818;stroke-width:1.0;"/><line style="stroke:#181818;stroke-width:1.0;" x1="186.75" x2="186.75" y1="1295.8125" y2="1315.8125"/><polygon fill="#181818" points="182.75,1305.8125,186.75,1315.8125,190.75,1305.8125,186.75,1309.8125" style="stroke:#181818;stroke-width:1.0;"/><line style="stroke:#181818;stroke-width:1.0;" x1="186.75" x2="186.75" y1="1363.75" y2="1383.75"/><polygon fill="#181818" points="182.75,1373.75,186.75,1383.75,190.75,1373.75,186.75,1377.75" style="stroke:#181818;stroke-width:1.0;"/><line style="stroke:#181818;stroke-width:1.0;" x1="186.75" x2="186.75" y1="918.1875" y2="962.1563"/><polygon fill="#181818" points="182.75,952.1563,186.75,962.1563,190.75,952.1563,186.75,956.1563" style="stroke:#181818;stroke-width:1.0;"/><line style="stroke:#181818;stroke-width:1.0;" x1="186.75" x2="186.75" y1="1445.6563" y2="1477.6563"/><polygon fill="#181818" points="182.75,1467.6563,186.75,1477.6563,190.75,1467.6563,186.75,1471.6563" style="stroke:#181818;stroke-width:1.0;"/><line style="stroke:#181818;stroke-width:1.0;" x1="186.75" x2="186.75" y1="1603.8613" y2="1623.8613"/><polygon fill="#181818" points="182.75,1613.8613,186.75,1623.8613,190.75,1613.8613,186.75,1617.8613" style="stroke:#181818;stroke-width:1.0;"/><line style="stroke:#181818;stroke-width:1.0;" x1="186.75" x2="186.75" y1="1671.7988" y2="1691.7988"/><polygon fill="#181818" points="182.75,1681.7988,186.75,1691.7988,190.75,1681.7988,186.75,1685.7988" style="stroke:#181818;stroke-width:1.0;"/><line style="stroke:#181818;stroke-width:1.0;" x1="186.75" x2="186.75" y1="1739.7363" y2="1759.7363"/><polygon fill="#181818" points="182.75,1749.7363,186.75,1759.7363,190.75,1749.7363,186.75,1753.7363" style="stroke:#181818;stroke-width:1.0;"/><line style="stroke:#181818;stroke-width:1.0;" x1="186.75" x2="186.75" y1="1807.6738" y2="1827.6738"/><polygon fill="#181818" points="182.75,1817.6738,186.75,1827.6738,190.75,1817.6738,186.75,1821.6738" style="stroke:#181818;stroke-width:1.0;"/><line style="stroke:#181818;stroke-width:1.0;" x1="186.75" x2="186.75" y1="1875.6113" y2="1895.6113"/><polygon fill="#181818" points="182.75,1885.6113,186.75,1895.6113,190.75,1885.6113,186.75,1889.6113" style="stroke:#181818;stroke-width:1.0;"/><line style="stroke:#181818;stroke-width:1.0;" x1="186.75" x2="186.75" y1="1943.5488" y2="1963.5488"/><polygon fill="#181818" points="182.75,1953.5488,186.75,1963.5488,190.75,1953.5488,186.75,1957.5488" style="stroke:#181818;stroke-width:1.0;"/><line style="stroke:#181818;stroke-width:1.0;" x1="186.75" x2="186.75" y1="1511.625" y2="1555.9238"/><polygon fill="#181818" points="182.75,1545.9238,186.75,1555.9238,190.75,1545.9238,186.75,1549.9238" style="stroke:#181818;stroke-width:1.0;"/><line style="stroke:#181818;stroke-width:1.0;" x1="186.75" x2="186.75" y1="2011.4863" y2="2043.4863"/><polygon fill="#181818" points="182.75,2033.4863,186.75,2043.4863,190.75,2033.4863,186.75,2037.4863" style="stroke:#181818;stroke-width:1.0;"/><line style="stroke:#181818;stroke-width:1.0;" x1="186.75" x2="186.75" y1="2077.4551" y2="2097.4551"/><polygon fill="#181818" points="182.75,2087.4551,186.75,2097.4551,190.75,2087.4551,186.75,2091.4551" style="stroke:#181818;stroke-width:1.0;"/><line style="stroke:#181818;stroke-width:1.0;" x1="186.75" x2="186.75" y1="2213.3613" y2="2238.3457"/><polygon fill="#181818" points="182.75,2228.3457,186.75,2238.3457,190.75,2228.3457,186.75,2232.3457" style="stroke:#181818;stroke-width:1.0;"/><line style="stroke:#181818;stroke-width:1.0;" x1="255.25" x2="267.25" y1="2201.3613" y2="2201.3613"/><polygon fill="#181818" points="263.25,2245.3301,267.25,2255.3301,271.25,2245.3301,267.25,2249.3301" style="stroke:#181818;stroke-width:1.0;"/><line style="stroke:#181818;stroke-width:1.0;" x1="267.25" x2="267.25" y1="2201.3613" y2="2304.3145"/><line style="stroke:#181818;stroke-width:1.0;" x1="267.25" x2="198.75" y1="2304.3145" y2="2304.3145"/><polygon fill="#181818" points="208.75,2300.3145,198.75,2304.3145,208.75,2308.3145,204.75,2304.3145" style="stroke:#181818;stroke-width:1.0;"/><line style="stroke:#181818;stroke-width:1.0;" x1="186.75" x2="186.75" y1="2272.3145" y2="2292.3145"/><polygon fill="#181818" points="182.75,2282.3145,186.75,2292.3145,190.75,2282.3145,186.75,2286.3145" style="stroke:#181818;stroke-width:1.0;"/><line style="stroke:#181818;stroke-width:1.0;" x1="186.75" x2="186.75" y1="2316.3145" y2="2336.3145"/><polygon fill="#181818" points="182.75,2326.3145,186.75,2336.3145,190.75,2326.3145,186.75,2330.3145" style="stroke:#181818;stroke-width:1.0;"/><line style="stroke:#181818;stroke-width:1.0;" x1="186.75" x2="186.75" y1="2384.252" y2="2404.252"/><polygon fill="#181818" points="182.75,2394.252,186.75,2404.252,190.75,2394.252,186.75,2398.252" style="stroke:#181818;stroke-width:1.0;"/><line style="stroke:#181818;stroke-width:1.0;" x1="186.75" x2="186.75" y1="2466.1582" y2="2486.1582"/><polygon fill="#181818" points="182.75,2476.1582,186.75,2486.1582,190.75,2476.1582,186.75,2480.1582" style="stroke:#181818;stroke-width:1.0;"/><line style="stroke:#181818;stroke-width:1.0;" x1="186.75" x2="186.75" y1="2145.3926" y2="2189.3613"/><polygon fill="#181818" points="182.75,2179.3613,186.75,2189.3613,190.75,2179.3613,186.75,2183.3613" style="stroke:#181818;stroke-width:1.0;"/><line style="stroke:#181818;stroke-width:1.0;" x1="186.75" x2="186.75" y1="2548.0645" y2="2580.0645"/><polygon fill="#181818" points="182.75,2570.0645,186.75,2580.0645,190.75,2570.0645,186.75,2574.0645" style="stroke:#181818;stroke-width:1.0;"/><!--SRC=[pLLDRzf04BtxLuo4L16Q7D9ZQ8a2f5MbD4K1r0kNPJqsAzQxrkuwX5RzxvrbxMA82St7eJvOoEoyUVjcverT2fKpmpAuuaxS2xSU2fPf5VSPNwP65oeUQAaDp0ih55eRsKCHdxLoO_4JuVn3xT2jThYFbMaAP4veLJiun8GLqatmmLr9aQeCbGDEBpHxSBj792RkCKoTJ6GTCowww7H-V1rrEZCrCfhJLOHAuVqdEEz64SKwuGbHF6UIYqJm3K5evqYNbvelJ-1N1FJObN1y0Urmyl9ayv4pYz3kQuL0sNna-EwVbZPy8MBAFqQYv1dqlurFwLqTr-hZzdJE9AO6KL7042LR-u3sZMOnp2bWfge4tOOCToYHg9GvUiTGmnqQaUfSZxARAlaIVdKDAA9Na_BxFHwLy2YjaMGSGIZG7kq_qcl2bWY9qTdpc0LfRaco80sgE7HZz3kAMZSYNJYxNCzbWGJGP_H7fnEQry9yFLFvjl7fPqhpak5EzzSc8sD4X6eJ1i1ZWKvAi6eKMWDjL2Br2aq_9FshGWt9QBedbJX9JdU-bnc2M8e66uo_mGLCxxvStqw0d28EqqniXJPaDT6n2SaVmPVYFgPQ4xYHRE-fPDk84h_EVrYOO1unvhv4e1LD1QNZ3kEjyY-IyAtKAYVs3VLgB6wlgJEdQhxJcpijU9tDIIIcOd16P0t-snh98lj7dGvSFkHOiOSIkRi3_Ah666WjpsAzKdkWhs0xyJhWWu_od9_Djg42j8SbSrXt1x0vSa4hjTkyAS_sD-N6NpQ5Yb6AUofJg8z8e3qrgT_D5UJb2RW5qZ9TeosTItedKxfcyGVigyAmtShoH18TiDwdjDs37mREFiffu8KxA_8PCNm71brXbE- -l9BwW2dJpCtKO1CAZD9IEkMytjRf_0y0]--></g></svg>