<?xml version="1.0" encoding="us-ascii" standalone="no"?><svg xmlns="http://www.w3.org/2000/svg" xmlns:xlink="http://www.w3.org/1999/xlink" contentStyleType="text/css" height="1055px" preserveAspectRatio="none" style="width:497px;height:1055px;background:#FFFFFF;" version="1.1" viewBox="0 0 497 1055" width="497px" zoomAndPan="magnify"><defs/><g><ellipse cx="113.5" cy="20" fill="#222222" rx="10" ry="10" style="stroke:#222222;stroke-width:1.0;"/><rect fill="#F1F1F1" height="47.9375" rx="12.5" ry="12.5" style="stroke:#181818;stroke-width:0.5;" width="97" x="65" y="50"/><text fill="#000000" font-family="sans-serif" font-size="12" font-weight="bold" lengthAdjust="spacing" textLength="27" x="100" y="71.1387">WIP</text><text fill="#000000" font-family="sans-serif" font-size="12" lengthAdjust="spacing" textLength="77" x="75" y="85.1074">Cut-up += 1</text><polygon fill="#FFFFCC" points="77.5,117.9375,149.5,117.9375,161.5,129.9375,149.5,141.9375,77.5,141.9375,65.5,129.9375,77.5,117.9375" style="stroke:#181818;stroke-width:0.5;"/><text fill="#000000" font-family="sans-serif" font-size="12" lengthAdjust="spacing" textLength="72" x="77.5" y="134.0918">Cut-up type</text><rect fill="#DA70D6" height="47.9375" rx="12.5" ry="12.5" style="stroke:#181818;stroke-width:0.5;" width="59" x="21" y="185.9063"/><text fill="#000000" font-family="sans-serif" font-size="12" font-weight="bold" lengthAdjust="spacing" textLength="39" x="31" y="207.0449">Seize</text><text fill="#000000" font-family="sans-serif" font-size="12" lengthAdjust="spacing" textLength="26" x="37.5" y="221.0137">BMS</text><path d="M258,197.8906 L258,205.875 L238,209.875 L258,213.875 L258,221.8594 A0,0 0 0 0 258,221.8594 L430,221.8594 A0,0 0 0 0 430,221.8594 L430,207.8906 L420,197.8906 L258,197.8906 A0,0 0 0 0 258,197.8906 " fill="#EFEFFF" style="stroke:#181818;stroke-width:0.5;"/><path d="M420,197.8906 L420,207.8906 L430,207.8906 L420,197.8906 " fill="#EFEFFF" style="stroke:#181818;stroke-width:0.5;"/><text fill="#000000" font-family="sans-serif" font-size="12" lengthAdjust="spacing" textLength="151" x="264" y="214.0293">Specimen-based priority</text><rect fill="#DA70D6" height="47.9375" rx="12.5" ry="12.5" style="stroke:#181818;stroke-width:0.5;" width="123" x="115" y="185.9063"/><text fill="#000000" font-family="sans-serif" font-size="12" font-weight="bold" lengthAdjust="spacing" textLength="39" x="157" y="207.0449">Seize</text><text fill="#000000" font-family="sans-serif" font-size="12" lengthAdjust="spacing" textLength="103" x="125" y="221.0137">Cut-up assistant</text><polygon fill="#FFFFCC" points="113.5,243.8438,113.5,243.8438,125.5,255.8438,113.5,267.8438,113.5,267.8438,101.5,255.8438,113.5,243.8438" style="stroke:#181818;stroke-width:0.5;"/><path d="M169,299.8281 L169,307.8125 L149,311.8125 L169,315.8125 L169,323.7969 A0,0 0 0 0 169,323.7969 L398,323.7969 A0,0 0 0 0 398,323.7969 L398,309.8281 L388,299.8281 L169,299.8281 A0,0 0 0 0 169,299.8281 " fill="#EFEFFF" style="stroke:#181818;stroke-width:0.5;"/><path d="M388,299.8281 L388,309.8281 L398,309.8281 L388,299.8281 " fill="#EFEFFF" style="stroke:#181818;stroke-width:0.5;"/><text fill="#000000" font-family="sans-serif" font-size="12" lengthAdjust="spacing" textLength="208" x="175" y="315.9668">Duration depends on cut-up type</text><rect fill="#98FB98" height="47.9375" rx="12.5" ry="12.5" style="stroke:#181818;stroke-width:0.5;" width="71" x="78" y="287.8438"/><text fill="#000000" font-family="sans-serif" font-size="12" font-weight="bold" lengthAdjust="spacing" textLength="40" x="93.5" y="308.9824">Delay</text><text fill="#000000" font-family="sans-serif" font-size="12" lengthAdjust="spacing" textLength="51" x="88" y="322.9512">(Cut-up)</text><rect fill="#DA70D6" height="61.9063" rx="12.5" ry="12.5" style="stroke:#181818;stroke-width:0.5;" width="123" x="52" y="355.7813"/><text fill="#000000" font-family="sans-serif" font-size="12" font-weight="bold" lengthAdjust="spacing" textLength="57" x="85" y="376.9199">Release</text><text fill="#000000" font-family="sans-serif" font-size="12" lengthAdjust="spacing" textLength="43" x="92" y="390.8887">BMS or</text><text fill="#000000" font-family="sans-serif" font-size="12" lengthAdjust="spacing" textLength="103" x="62" y="404.8574">Cut-up assistant</text><rect fill="#F1F1F1" height="47.9375" rx="12.5" ry="12.5" style="stroke:#181818;stroke-width:0.5;" width="91" x="68" y="437.6875"/><text fill="#000000" font-family="sans-serif" font-size="12" font-weight="bold" lengthAdjust="spacing" textLength="27" x="100" y="458.8262">WIP</text><text fill="#000000" font-family="sans-serif" font-size="12" lengthAdjust="spacing" textLength="71" x="78" y="472.7949">Cut-up -= 1</text><rect fill="none" height="506.6406" style="stroke:#000000;stroke-width:1.5;" width="475" x="11" y="495.625"/><path d="M130,495.625 L130,502.5938 L120,512.5938 L11,512.5938 " fill="none" style="stroke:#000000;stroke-width:1.5;"/><text fill="#000000" font-family="sans-serif" font-size="12" lengthAdjust="spacing" textLength="109" x="14" y="507.7637">Batch and deliver</text><rect fill="#87CEFA" height="33.9688" rx="12.5" ry="12.5" style="stroke:#181818;stroke-width:0.5;" width="131" x="48" y="578.5781"/><text fill="#000000" font-family="sans-serif" font-size="12" font-weight="bold" lengthAdjust="spacing" textLength="40" x="58" y="599.7168">Batch</text><text fill="#000000" font-family="sans-serif" font-size="12" lengthAdjust="spacing" textLength="67" x="102" y="599.7168">specimens</text><polygon fill="#FFFFCC" points="57,529.5938,170,529.5938,182,541.5938,170,553.5938,57,553.5938,45,541.5938,57,529.5938" style="stroke:#181818;stroke-width:0.5;"/><text fill="#000000" font-family="sans-serif" font-size="12" lengthAdjust="spacing" textLength="16" x="117.5" y="564.7324">no</text><text fill="#000000" font-family="sans-serif" font-size="12" lengthAdjust="spacing" textLength="113" x="57" y="545.748">Urgent specimen?</text><text fill="#000000" font-family="sans-serif" font-size="12" lengthAdjust="spacing" textLength="21" x="182" y="538.7637">yes</text><polygon fill="#FFFFCC" points="113.5,632.5469,125.5,644.5469,113.5,656.5469,101.5,644.5469,113.5,632.5469" style="stroke:#181818;stroke-width:0.5;"/><polygon fill="#FFFFCC" points="77.5,676.5469,149.5,676.5469,161.5,688.5469,149.5,700.5469,77.5,700.5469,65.5,688.5469,77.5,676.5469" style="stroke:#181818;stroke-width:0.5;"/><text fill="#000000" font-family="sans-serif" font-size="12" lengthAdjust="spacing" textLength="72" x="77.5" y="692.7012">Cut-up type</text><rect fill="#DA70D6" height="47.9375" rx="12.5" ry="12.5" style="stroke:#181818;stroke-width:0.5;" width="59" x="21" y="744.5156"/><text fill="#000000" font-family="sans-serif" font-size="12" font-weight="bold" lengthAdjust="spacing" textLength="39" x="31" y="765.6543">Seize</text><text fill="#000000" font-family="sans-serif" font-size="12" lengthAdjust="spacing" textLength="26" x="37.5" y="779.623">BMS</text><path d="M258,749.5156 L258,764.4844 L238,768.4844 L258,772.4844 L258,787.4531 A0,0 0 0 0 258,787.4531 L476,787.4531 A0,0 0 0 0 476,787.4531 L476,759.5156 L466,749.5156 L258,749.5156 A0,0 0 0 0 258,749.5156 " fill="#EFEFFF" style="stroke:#181818;stroke-width:0.5;"/><path d="M466,749.5156 L466,759.5156 L476,759.5156 L466,749.5156 " fill="#EFEFFF" style="stroke:#181818;stroke-width:0.5;"/><text fill="#000000" font-family="sans-serif" font-size="12" lengthAdjust="spacing" textLength="197" x="264" y="765.6543">URGENT if specimen is URGENT,</text><text fill="#000000" font-family="sans-serif" font-size="12" lengthAdjust="spacing" textLength="165" x="264" y="779.623">ROUTINE priority otherwise</text><rect fill="#DA70D6" height="47.9375" rx="12.5" ry="12.5" style="stroke:#181818;stroke-width:0.5;" width="123" x="115" y="744.5156"/><text fill="#000000" font-family="sans-serif" font-size="12" font-weight="bold" lengthAdjust="spacing" textLength="39" x="157" y="765.6543">Seize</text><text fill="#000000" font-family="sans-serif" font-size="12" lengthAdjust="spacing" textLength="103" x="125" y="779.623">Cut-up assistant</text><polygon fill="#FFFFCC" points="113.5,802.4531,113.5,802.4531,125.5,814.4531,113.5,826.4531,113.5,826.4531,101.5,814.4531,113.5,802.4531" style="stroke:#181818;stroke-width:0.5;"/><rect fill="#87CEFA" height="61.9063" rx="12.5" ry="12.5" style="stroke:#181818;stroke-width:0.5;" width="112" x="57.5" y="846.4531"/><text fill="#000000" font-family="sans-serif" font-size="12" font-weight="bold" lengthAdjust="spacing" textLength="49" x="89" y="867.5918">Deliver</text><text fill="#000000" font-family="sans-serif" font-size="12" lengthAdjust="spacing" textLength="86" x="70.5" y="881.5605">to processing</text><text fill="#000000" font-family="sans-serif" font-size="12" lengthAdjust="spacing" textLength="88" x="71.5" y="895.5293">(&amp; return trip)</text><rect fill="#DA70D6" height="61.9063" rx="12.5" ry="12.5" style="stroke:#181818;stroke-width:0.5;" width="123" x="52" y="928.3594"/><text fill="#000000" font-family="sans-serif" font-size="12" font-weight="bold" lengthAdjust="spacing" textLength="57" x="85" y="949.498">Release</text><text fill="#000000" font-family="sans-serif" font-size="12" lengthAdjust="spacing" textLength="43" x="92" y="963.4668">BMS or</text><text fill="#000000" font-family="sans-serif" font-size="12" lengthAdjust="spacing" textLength="103" x="62" y="977.4355">Cut-up assistant</text><ellipse cx="113.5" cy="1033.2656" fill="none" rx="11" ry="11" style="stroke:#222222;stroke-width:1.0;"/><ellipse cx="113.5" cy="1033.2656" fill="#222222" rx="6" ry="6" style="stroke:#111111;stroke-width:1.0;"/><line style="stroke:#181818;stroke-width:1.0;" x1="113.5" x2="113.5" y1="30" y2="50"/><polygon fill="#181818" points="109.5,40,113.5,50,117.5,40,113.5,44" style="stroke:#181818;stroke-width:1.0;"/><line style="stroke:#181818;stroke-width:1.0;" x1="65.5" x2="50.5" y1="129.9375" y2="129.9375"/><line style="stroke:#181818;stroke-width:1.0;" x1="50.5" x2="50.5" y1="129.9375" y2="185.9063"/><polygon fill="#181818" points="46.5,175.9063,50.5,185.9063,54.5,175.9063,50.5,179.9063" style="stroke:#181818;stroke-width:1.0;"/><text fill="#000000" font-family="sans-serif" font-size="12" lengthAdjust="spacing" textLength="26" x="50.5" y="164.4063">BMS</text><line style="stroke:#181818;stroke-width:1.0;" x1="161.5" x2="176.5" y1="129.9375" y2="129.9375"/><line style="stroke:#181818;stroke-width:1.0;" x1="176.5" x2="176.5" y1="129.9375" y2="185.9063"/><polygon fill="#181818" points="172.5,175.9063,176.5,185.9063,180.5,175.9063,176.5,179.9063" style="stroke:#181818;stroke-width:1.0;"/><text fill="#000000" font-family="sans-serif" font-size="12" lengthAdjust="spacing" textLength="34" x="176.5" y="164.4063">other</text><line style="stroke:#181818;stroke-width:1.0;" x1="50.5" x2="50.5" y1="233.8438" y2="255.8438"/><line style="stroke:#181818;stroke-width:1.0;" x1="50.5" x2="101.5" y1="255.8438" y2="255.8438"/><polygon fill="#181818" points="91.5,251.8438,101.5,255.8438,91.5,259.8438,95.5,255.8438" style="stroke:#181818;stroke-width:1.0;"/><line style="stroke:#181818;stroke-width:1.0;" x1="176.5" x2="176.5" y1="233.8438" y2="255.8438"/><line style="stroke:#181818;stroke-width:1.0;" x1="176.5" x2="125.5" y1="255.8438" y2="255.8438"/><polygon fill="#181818" points="135.5,251.8438,125.5,255.8438,135.5,259.8438,131.5,255.8438" style="stroke:#181818;stroke-width:1.0;"/><line style="stroke:#181818;stroke-width:1.0;" x1="113.5" x2="113.5" y1="97.9375" y2="117.9375"/><polygon fill="#181818" points="109.5,107.9375,113.5,117.9375,117.5,107.9375,113.5,111.9375" style="stroke:#181818;stroke-width:1.0;"/><line style="stroke:#181818;stroke-width:1.0;" x1="113.5" x2="113.5" y1="267.8438" y2="287.8438"/><polygon fill="#181818" points="109.5,277.8438,113.5,287.8438,117.5,277.8438,113.5,281.8438" style="stroke:#181818;stroke-width:1.0;"/><line style="stroke:#181818;stroke-width:1.0;" x1="113.5" x2="113.5" y1="335.7813" y2="355.7813"/><polygon fill="#181818" points="109.5,345.7813,113.5,355.7813,117.5,345.7813,113.5,349.7813" style="stroke:#181818;stroke-width:1.0;"/><line style="stroke:#181818;stroke-width:1.0;" x1="113.5" x2="113.5" y1="417.6875" y2="437.6875"/><polygon fill="#181818" points="109.5,427.6875,113.5,437.6875,117.5,427.6875,113.5,431.6875" style="stroke:#181818;stroke-width:1.0;"/><line style="stroke:#181818;stroke-width:1.0;" x1="113.5" x2="113.5" y1="553.5938" y2="578.5781"/><polygon fill="#181818" points="109.5,568.5781,113.5,578.5781,117.5,568.5781,113.5,572.5781" style="stroke:#181818;stroke-width:1.0;"/><line style="stroke:#181818;stroke-width:1.0;" x1="182" x2="194" y1="541.5938" y2="541.5938"/><polygon fill="#181818" points="190,585.5625,194,595.5625,198,585.5625,194,589.5625" style="stroke:#181818;stroke-width:1.0;"/><line style="stroke:#181818;stroke-width:1.0;" x1="194" x2="194" y1="541.5938" y2="644.5469"/><line style="stroke:#181818;stroke-width:1.0;" x1="194" x2="125.5" y1="644.5469" y2="644.5469"/><polygon fill="#181818" points="135.5,640.5469,125.5,644.5469,135.5,648.5469,131.5,644.5469" style="stroke:#181818;stroke-width:1.0;"/><line style="stroke:#181818;stroke-width:1.0;" x1="113.5" x2="113.5" y1="612.5469" y2="632.5469"/><polygon fill="#181818" points="109.5,622.5469,113.5,632.5469,117.5,622.5469,113.5,626.5469" style="stroke:#181818;stroke-width:1.0;"/><line style="stroke:#181818;stroke-width:1.0;" x1="65.5" x2="50.5" y1="688.5469" y2="688.5469"/><line style="stroke:#181818;stroke-width:1.0;" x1="50.5" x2="50.5" y1="688.5469" y2="744.5156"/><polygon fill="#181818" points="46.5,734.5156,50.5,744.5156,54.5,734.5156,50.5,738.5156" style="stroke:#181818;stroke-width:1.0;"/><text fill="#000000" font-family="sans-serif" font-size="12" lengthAdjust="spacing" textLength="26" x="50.5" y="723.0156">BMS</text><line style="stroke:#181818;stroke-width:1.0;" x1="161.5" x2="176.5" y1="688.5469" y2="688.5469"/><line style="stroke:#181818;stroke-width:1.0;" x1="176.5" x2="176.5" y1="688.5469" y2="744.5156"/><polygon fill="#181818" points="172.5,734.5156,176.5,744.5156,180.5,734.5156,176.5,738.5156" style="stroke:#181818;stroke-width:1.0;"/><text fill="#000000" font-family="sans-serif" font-size="12" lengthAdjust="spacing" textLength="34" x="176.5" y="723.0156">other</text><line style="stroke:#181818;stroke-width:1.0;" x1="50.5" x2="50.5" y1="792.4531" y2="814.4531"/><line style="stroke:#181818;stroke-width:1.0;" x1="50.5" x2="101.5" y1="814.4531" y2="814.4531"/><polygon fill="#181818" points="91.5,810.4531,101.5,814.4531,91.5,818.4531,95.5,814.4531" style="stroke:#181818;stroke-width:1.0;"/><line style="stroke:#181818;stroke-width:1.0;" x1="176.5" x2="176.5" y1="792.4531" y2="814.4531"/><line style="stroke:#181818;stroke-width:1.0;" x1="176.5" x2="125.5" y1="814.4531" y2="814.4531"/><polygon fill="#181818" points="135.5,810.4531,125.5,814.4531,135.5,818.4531,131.5,814.4531" style="stroke:#181818;stroke-width:1.0;"/><line style="stroke:#181818;stroke-width:1.0;" x1="113.5" x2="113.5" y1="656.5469" y2="676.5469"/><polygon fill="#181818" points="109.5,666.5469,113.5,676.5469,117.5,666.5469,113.5,670.5469" style="stroke:#181818;stroke-width:1.0;"/><line style="stroke:#181818;stroke-width:1.0;" x1="113.5" x2="113.5" y1="826.4531" y2="846.4531"/><polygon fill="#181818" points="109.5,836.4531,113.5,846.4531,117.5,836.4531,113.5,840.4531" style="stroke:#181818;stroke-width:1.0;"/><line style="stroke:#181818;stroke-width:1.0;" x1="113.5" x2="113.5" y1="908.3594" y2="928.3594"/><polygon fill="#181818" points="109.5,918.3594,113.5,928.3594,117.5,918.3594,113.5,922.3594" style="stroke:#181818;stroke-width:1.0;"/><line style="stroke:#181818;stroke-width:1.0;" x1="113.5" x2="113.5" y1="485.625" y2="529.5938"/><polygon fill="#181818" points="109.5,519.5938,113.5,529.5938,117.5,519.5938,113.5,523.5938" style="stroke:#181818;stroke-width:1.0;"/><line style="stroke:#181818;stroke-width:1.0;" x1="113.5" x2="113.5" y1="990.2656" y2="1022.2656"/><polygon fill="#181818" points="109.5,1012.2656,113.5,1022.2656,117.5,1012.2656,113.5,1016.2656" style="stroke:#181818;stroke-width:1.0;"/><!--SRC=[pPDFRzD04CNl-ob6geHYGmxbM0jLJLrG9GWeVyGbbyrwueoosRLsnoq6yTsPTKrhKdhWXW-MjPxvpNjlx7WWr-YWZt1bcEw8kvBqqRjgfisX3hvrrRMtFi2sZUGmHXLVwdZl7I_fEyBvsr7Ht3EUievU6ZMJTwF24dUwjRp2RtnbgNP7T0n6RXXES7-MMDpnSynOZ8gi0wkBFFzw-oNFD-wwvMdRmEjtS5weU4zizZ0P3hbhC5D6HuJ9xDCoKo3NcGzcJvKGbYZGn91tnL3cUO_XnSA1gsCaqU6uw0kT-810zPulODcW8V4otGgkWYQG3nAhGbSzY5DdZRPO1qGdv1AjxX9va9mLQamhsz172nKsYG3oQ9wygIU92xGe4mStuCFVn3vBRTgd9c4pzMDcEiMdNIK3BTrXW1-ATZ1PXpgj9mxcBZEGc1nCEeoPGfk2Stv8xMEI7W_TrhOe0tjadZ_snY9bGRl_O5VhnOUR-Gh4u6znG74uVRDnYy_hrUtyvd67qC-xfuZZRPxOBHzoImBOIwityf-HgpUIrYi8o6rmm87IflznUp_bs_VDBm00]--></g></svg>