<?xml version="1.0" encoding="us-ascii" standalone="no"?><svg xmlns="http://www.w3.org/2000/svg" xmlns:xlink="http://www.w3.org/1999/xlink" contentStyleType="text/css" height="1675px" preserveAspectRatio="none" style="width:599px;height:1675px;background:#FFFFFF;" version="1.1" viewBox="0 0 599 1675" width="599px" zoomAndPan="magnify"><defs/><g><ellipse cx="282.25" cy="20" fill="#222222" rx="10" ry="10" style="stroke:#222222;stroke-width:1.0;"/><rect fill="#F1F1F1" height="47.9375" rx="12.5" ry="12.5" style="stroke:#181818;stroke-width:0.5;" width="85" x="239.75" y="50"/><text fill="#000000" font-family="sans-serif" font-size="12" font-weight="bold" lengthAdjust="spacing" textLength="27" x="268.75" y="71.1387">WIP</text><text fill="#000000" font-family="sans-serif" font-size="12" lengthAdjust="spacing" textLength="65" x="249.75" y="85.1074">total += 1</text><rect fill="#F1F1F1" height="47.9375" rx="12.5" ry="12.5" style="stroke:#181818;stroke-width:0.5;" width="119" x="222.75" y="117.9375"/><text fill="#000000" font-family="sans-serif" font-size="12" font-weight="bold" lengthAdjust="spacing" textLength="27" x="268.75" y="139.0762">WIP</text><text fill="#000000" font-family="sans-serif" font-size="12" lengthAdjust="spacing" textLength="99" x="232.75" y="153.0449">Reception += 1</text><rect fill="none" height="229.7813" style="stroke:#000000;stroke-width:1.5;" width="345" x="204.75" y="175.875"/><path d="M320.75,175.875 L320.75,182.8438 L310.75,192.8438 L204.75,192.8438 " fill="none" style="stroke:#000000;stroke-width:1.5;"/><text fill="#000000" font-family="sans-serif" font-size="12" lengthAdjust="spacing" textLength="106" x="207.75" y="188.0137">Receive and Sort</text><path d="M360.75,221.8281 L360.75,229.8125 L340.75,233.8125 L360.75,237.8125 L360.75,245.7969 A0,0 0 0 0 360.75,245.7969 L539.75,245.7969 A0,0 0 0 0 539.75,245.7969 L539.75,231.8281 L529.75,221.8281 L360.75,221.8281 A0,0 0 0 0 360.75,221.8281 " fill="#EFEFFF" style="stroke:#181818;stroke-width:0.5;"/><path d="M529.75,221.8281 L529.75,231.8281 L539.75,231.8281 L529.75,221.8281 " fill="#EFEFFF" style="stroke:#181818;stroke-width:0.5;"/><text fill="#000000" font-family="sans-serif" font-size="12" lengthAdjust="spacing" textLength="158" x="366.75" y="237.9668">highest (URGENT) priority</text><rect fill="#DA70D6" height="47.9375" rx="12.5" ry="12.5" style="stroke:#181818;stroke-width:0.5;" width="117" x="223.75" y="209.8438"/><text fill="#000000" font-family="sans-serif" font-size="12" font-weight="bold" lengthAdjust="spacing" textLength="39" x="262.75" y="230.9824">Seize</text><text fill="#000000" font-family="sans-serif" font-size="12" lengthAdjust="spacing" textLength="97" x="233.75" y="244.9512">booking-in staff</text><rect fill="#98FB98" height="47.9375" rx="12.5" ry="12.5" style="stroke:#181818;stroke-width:0.5;" width="135" x="214.75" y="277.7813"/><text fill="#000000" font-family="sans-serif" font-size="12" font-weight="bold" lengthAdjust="spacing" textLength="40" x="262.25" y="298.9199">Delay</text><text fill="#000000" font-family="sans-serif" font-size="12" lengthAdjust="spacing" textLength="115" x="224.75" y="312.8887">(Receive and sort)</text><rect fill="#DA70D6" height="47.9375" rx="12.5" ry="12.5" style="stroke:#181818;stroke-width:0.5;" width="117" x="223.75" y="345.7188"/><text fill="#000000" font-family="sans-serif" font-size="12" font-weight="bold" lengthAdjust="spacing" textLength="57" x="253.75" y="366.8574">Release</text><text fill="#000000" font-family="sans-serif" font-size="12" lengthAdjust="spacing" textLength="97" x="233.75" y="380.8262">booking-in staff</text><rect fill="none" height="738.2344" style="stroke:#000000;stroke-width:1.5;" width="542.5" x="11" y="415.6563"/><path d="M86,415.6563 L86,422.625 L76,432.625 L11,432.625 " fill="none" style="stroke:#000000;stroke-width:1.5;"/><text fill="#000000" font-family="sans-serif" font-size="12" lengthAdjust="spacing" textLength="65" x="14" y="427.7949">Booking-in</text><path d="M360.75,461.6094 L360.75,469.5938 L340.75,473.5938 L360.75,477.5938 L360.75,485.5781 A0,0 0 0 0 360.75,485.5781 L532.75,485.5781 A0,0 0 0 0 532.75,485.5781 L532.75,471.6094 L522.75,461.6094 L360.75,461.6094 A0,0 0 0 0 360.75,461.6094 " fill="#EFEFFF" style="stroke:#181818;stroke-width:0.5;"/><path d="M522.75,461.6094 L522.75,471.6094 L532.75,471.6094 L522.75,461.6094 " fill="#EFEFFF" style="stroke:#181818;stroke-width:0.5;"/><text fill="#000000" font-family="sans-serif" font-size="12" lengthAdjust="spacing" textLength="151" x="366.75" y="477.748">Specimen-based priority</text><rect fill="#DA70D6" height="47.9375" rx="12.5" ry="12.5" style="stroke:#181818;stroke-width:0.5;" width="117" x="223.75" y="449.625"/><text fill="#000000" font-family="sans-serif" font-size="12" font-weight="bold" lengthAdjust="spacing" textLength="39" x="262.75" y="470.7637">Seize</text><text fill="#000000" font-family="sans-serif" font-size="12" lengthAdjust="spacing" textLength="97" x="233.75" y="484.7324">booking-in staff</text><rect fill="#98FB98" height="61.9063" rx="12.5" ry="12.5" style="stroke:#181818;stroke-width:0.5;" width="115" x="224.75" y="570.4844"/><text fill="#000000" font-family="sans-serif" font-size="12" font-weight="bold" lengthAdjust="spacing" textLength="40" x="262.25" y="591.623">Delay</text><text fill="#000000" font-family="sans-serif" font-size="12" lengthAdjust="spacing" textLength="95" x="234.75" y="605.5918">(Pre-booking-in</text><text fill="#000000" font-family="sans-serif" font-size="12" lengthAdjust="spacing" textLength="85" x="239.75" y="619.5605">investigation)</text><polygon fill="#FFFFCC" points="237.25,517.5625,327.25,517.5625,339.25,531.5313,327.25,545.5,237.25,545.5,225.25,531.5313,237.25,517.5625" style="stroke:#181818;stroke-width:0.5;"/><text fill="#000000" font-family="sans-serif" font-size="12" lengthAdjust="spacing" textLength="21" x="286.25" y="556.6387">yes</text><text fill="#000000" font-family="sans-serif" font-size="12" lengthAdjust="spacing" textLength="90" x="237.25" y="528.7012">Pre-booking-in</text><text fill="#000000" font-family="sans-serif" font-size="12" lengthAdjust="spacing" textLength="86" x="239.25" y="542.6699">investigation?</text><text fill="#000000" font-family="sans-serif" font-size="12" lengthAdjust="spacing" textLength="16" x="339.25" y="528.7012">no</text><polygon fill="#FFFFCC" points="282.25,652.3906,294.25,664.3906,282.25,676.3906,270.25,664.3906,282.25,652.3906" style="stroke:#181818;stroke-width:0.5;"/><polygon fill="#FFFFCC" points="225.25,696.3906,339.25,696.3906,351.25,708.3906,339.25,720.3906,225.25,720.3906,213.25,708.3906,225.25,696.3906" style="stroke:#181818;stroke-width:0.5;"/><text fill="#000000" font-family="sans-serif" font-size="12" lengthAdjust="spacing" textLength="114" x="225.25" y="712.5449">Specimen source?</text><rect fill="#98FB98" height="61.9063" rx="12.5" ry="12.5" style="stroke:#181818;stroke-width:0.5;" width="94" x="119.5" y="758.3281"/><text fill="#000000" font-family="sans-serif" font-size="12" font-weight="bold" lengthAdjust="spacing" textLength="40" x="146.5" y="779.4668">Delay</text><text fill="#000000" font-family="sans-serif" font-size="12" lengthAdjust="spacing" textLength="74" x="129.5" y="793.4355">(Booking-in,</text><text fill="#000000" font-family="sans-serif" font-size="12" lengthAdjust="spacing" textLength="53" x="140" y="807.4043">internal)</text><polygon fill="#FFFFCC" points="123.5,840.2344,209.5,840.2344,221.5,854.2031,209.5,868.1719,123.5,868.1719,111.5,854.2031,123.5,840.2344" style="stroke:#181818;stroke-width:0.5;"/><text fill="#000000" font-family="sans-serif" font-size="12" lengthAdjust="spacing" textLength="62" x="135.5" y="851.373">Additional</text><text fill="#000000" font-family="sans-serif" font-size="12" lengthAdjust="spacing" textLength="86" x="123.5" y="865.3418">investigation?</text><rect fill="#98FB98" height="61.9063" rx="12.5" ry="12.5" style="stroke:#181818;stroke-width:0.5;" width="109" x="21" y="906.1094"/><text fill="#000000" font-family="sans-serif" font-size="12" font-weight="bold" lengthAdjust="spacing" textLength="40" x="55.5" y="927.248">Delay</text><text fill="#000000" font-family="sans-serif" font-size="12" lengthAdjust="spacing" textLength="89" x="31" y="941.2168">(Investigation,</text><text fill="#000000" font-family="sans-serif" font-size="12" lengthAdjust="spacing" textLength="58" x="48.5" y="955.1855">int. easy)</text><rect fill="#98FB98" height="61.9063" rx="12.5" ry="12.5" style="stroke:#181818;stroke-width:0.5;" width="109" x="150" y="906.1094"/><text fill="#000000" font-family="sans-serif" font-size="12" font-weight="bold" lengthAdjust="spacing" textLength="40" x="184.5" y="927.248">Delay</text><text fill="#000000" font-family="sans-serif" font-size="12" lengthAdjust="spacing" textLength="89" x="160" y="941.2168">(Investigation,</text><text fill="#000000" font-family="sans-serif" font-size="12" lengthAdjust="spacing" textLength="58" x="177.5" y="955.1855">int. hard)</text><polygon fill="#FFFFCC" points="166.5,1001.9844,166.5,1001.9844,178.5,1013.9844,166.5,1025.9844,166.5,1025.9844,154.5,1013.9844,166.5,1001.9844" style="stroke:#181818;stroke-width:0.5;"/><rect fill="#98FB98" height="61.9063" rx="12.5" ry="12.5" style="stroke:#181818;stroke-width:0.5;" width="94" x="409.5" y="758.3281"/><text fill="#000000" font-family="sans-serif" font-size="12" font-weight="bold" lengthAdjust="spacing" textLength="40" x="436.5" y="779.4668">Delay</text><text fill="#000000" font-family="sans-serif" font-size="12" lengthAdjust="spacing" textLength="74" x="419.5" y="793.4355">(Booking-in,</text><text fill="#000000" font-family="sans-serif" font-size="12" lengthAdjust="spacing" textLength="56" x="428.5" y="807.4043">external)</text><polygon fill="#FFFFCC" points="413.5,840.2344,499.5,840.2344,511.5,854.2031,499.5,868.1719,413.5,868.1719,401.5,854.2031,413.5,840.2344" style="stroke:#181818;stroke-width:0.5;"/><text fill="#000000" font-family="sans-serif" font-size="12" lengthAdjust="spacing" textLength="62" x="425.5" y="851.373">Additional</text><text fill="#000000" font-family="sans-serif" font-size="12" lengthAdjust="spacing" textLength="86" x="413.5" y="865.3418">investigation?</text><rect fill="#98FB98" height="61.9063" rx="12.5" ry="12.5" style="stroke:#181818;stroke-width:0.5;" width="109" x="332" y="920.0781"/><text fill="#000000" font-family="sans-serif" font-size="12" font-weight="bold" lengthAdjust="spacing" textLength="40" x="366.5" y="941.2168">Delay</text><text fill="#000000" font-family="sans-serif" font-size="12" lengthAdjust="spacing" textLength="89" x="342" y="955.1855">(Investigation,</text><text fill="#000000" font-family="sans-serif" font-size="12" lengthAdjust="spacing" textLength="56" x="360.5" y="969.1543">external)</text><polygon fill="#FFFFCC" points="456.5,1015.9531,456.5,1015.9531,468.5,1027.9531,456.5,1039.9531,456.5,1039.9531,444.5,1027.9531,456.5,1015.9531" style="stroke:#181818;stroke-width:0.5;"/><polygon fill="#FFFFCC" points="282.25,1049.9531,282.25,1049.9531,294.25,1061.9531,282.25,1073.9531,282.25,1073.9531,270.25,1061.9531,282.25,1049.9531" style="stroke:#181818;stroke-width:0.5;"/><rect fill="#DA70D6" height="47.9375" rx="12.5" ry="12.5" style="stroke:#181818;stroke-width:0.5;" width="117" x="223.75" y="1093.9531"/><text fill="#000000" font-family="sans-serif" font-size="12" font-weight="bold" lengthAdjust="spacing" textLength="57" x="253.75" y="1115.0918">Release</text><text fill="#000000" font-family="sans-serif" font-size="12" lengthAdjust="spacing" textLength="97" x="233.75" y="1129.0605">booking-in staff</text><rect fill="#F1F1F1" height="47.9375" rx="12.5" ry="12.5" style="stroke:#181818;stroke-width:0.5;" width="113" x="225.75" y="1173.8906"/><text fill="#000000" font-family="sans-serif" font-size="12" font-weight="bold" lengthAdjust="spacing" textLength="27" x="268.75" y="1195.0293">WIP</text><text fill="#000000" font-family="sans-serif" font-size="12" lengthAdjust="spacing" textLength="93" x="235.75" y="1208.998">Reception -= 1</text><rect fill="none" height="390.7031" style="stroke:#000000;stroke-width:1.5;" width="392" x="196.75" y="1231.8281"/><path d="M315.75,1231.8281 L315.75,1238.7969 L305.75,1248.7969 L196.75,1248.7969 " fill="none" style="stroke:#000000;stroke-width:1.5;"/><text fill="#000000" font-family="sans-serif" font-size="12" lengthAdjust="spacing" textLength="109" x="199.75" y="1243.9668">Batch and deliver</text><rect fill="#87CEFA" height="33.9688" rx="12.5" ry="12.5" style="stroke:#181818;stroke-width:0.5;" width="131" x="216.75" y="1314.7813"/><text fill="#000000" font-family="sans-serif" font-size="12" font-weight="bold" lengthAdjust="spacing" textLength="40" x="226.75" y="1335.9199">Batch</text><text fill="#000000" font-family="sans-serif" font-size="12" lengthAdjust="spacing" textLength="67" x="270.75" y="1335.9199">specimens</text><polygon fill="#FFFFCC" points="225.75,1265.7969,338.75,1265.7969,350.75,1277.7969,338.75,1289.7969,225.75,1289.7969,213.75,1277.7969,225.75,1265.7969" style="stroke:#181818;stroke-width:0.5;"/><text fill="#000000" font-family="sans-serif" font-size="12" lengthAdjust="spacing" textLength="16" x="286.25" y="1300.9355">no</text><text fill="#000000" font-family="sans-serif" font-size="12" lengthAdjust="spacing" textLength="113" x="225.75" y="1281.9512">Urgent specimen?</text><text fill="#000000" font-family="sans-serif" font-size="12" lengthAdjust="spacing" textLength="21" x="350.75" y="1274.9668">yes</text><polygon fill="#FFFFCC" points="282.25,1368.75,294.25,1380.75,282.25,1392.75,270.25,1380.75,282.25,1368.75" style="stroke:#181818;stroke-width:0.5;"/><path d="M360.75,1417.75 L360.75,1432.7188 L340.75,1436.7188 L360.75,1440.7188 L360.75,1455.6875 A0,0 0 0 0 360.75,1455.6875 L578.75,1455.6875 A0,0 0 0 0 578.75,1455.6875 L578.75,1427.75 L568.75,1417.75 L360.75,1417.75 A0,0 0 0 0 360.75,1417.75 " fill="#EFEFFF" style="stroke:#181818;stroke-width:0.5;"/><path d="M568.75,1417.75 L568.75,1427.75 L578.75,1427.75 L568.75,1417.75 " fill="#EFEFFF" style="stroke:#181818;stroke-width:0.5;"/><text fill="#000000" font-family="sans-serif" font-size="12" lengthAdjust="spacing" textLength="197" x="366.75" y="1433.8887">URGENT if specimen is URGENT,</text><text fill="#000000" font-family="sans-serif" font-size="12" lengthAdjust="spacing" textLength="165" x="366.75" y="1447.8574">ROUTINE priority otherwise</text><rect fill="#DA70D6" height="47.9375" rx="12.5" ry="12.5" style="stroke:#181818;stroke-width:0.5;" width="117" x="223.75" y="1412.75"/><text fill="#000000" font-family="sans-serif" font-size="12" font-weight="bold" lengthAdjust="spacing" textLength="39" x="262.75" y="1433.8887">Seize</text><text fill="#000000" font-family="sans-serif" font-size="12" lengthAdjust="spacing" textLength="97" x="233.75" y="1447.8574">booking-in staff</text><rect fill="#87CEFA" height="61.9063" rx="12.5" ry="12.5" style="stroke:#181818;stroke-width:0.5;" width="112" x="226.25" y="1480.6875"/><text fill="#000000" font-family="sans-serif" font-size="12" font-weight="bold" lengthAdjust="spacing" textLength="49" x="257.75" y="1501.8262">Deliver</text><text fill="#000000" font-family="sans-serif" font-size="12" lengthAdjust="spacing" textLength="57" x="253.75" y="1515.7949">to cut-up</text><text fill="#000000" font-family="sans-serif" font-size="12" lengthAdjust="spacing" textLength="88" x="240.25" y="1529.7637">(&amp; return trip)</text><rect fill="#DA70D6" height="47.9375" rx="12.5" ry="12.5" style="stroke:#181818;stroke-width:0.5;" width="117" x="223.75" y="1562.5938"/><text fill="#000000" font-family="sans-serif" font-size="12" font-weight="bold" lengthAdjust="spacing" textLength="57" x="253.75" y="1583.7324">Release</text><text fill="#000000" font-family="sans-serif" font-size="12" lengthAdjust="spacing" textLength="97" x="233.75" y="1597.7012">booking-in staff</text><ellipse cx="282.25" cy="1653.5313" fill="none" rx="11" ry="11" style="stroke:#222222;stroke-width:1.0;"/><ellipse cx="282.25" cy="1653.5313" fill="#222222" rx="6" ry="6" style="stroke:#111111;stroke-width:1.0;"/><line style="stroke:#181818;stroke-width:1.0;" x1="282.25" x2="282.25" y1="30" y2="50"/><polygon fill="#181818" points="278.25,40,282.25,50,286.25,40,282.25,44" style="stroke:#181818;stroke-width:1.0;"/><line style="stroke:#181818;stroke-width:1.0;" x1="282.25" x2="282.25" y1="97.9375" y2="117.9375"/><polygon fill="#181818" points="278.25,107.9375,282.25,117.9375,286.25,107.9375,282.25,111.9375" style="stroke:#181818;stroke-width:1.0;"/><line style="stroke:#181818;stroke-width:1.0;" x1="282.25" x2="282.25" y1="257.7813" y2="277.7813"/><polygon fill="#181818" points="278.25,267.7813,282.25,277.7813,286.25,267.7813,282.25,271.7813" style="stroke:#181818;stroke-width:1.0;"/><line style="stroke:#181818;stroke-width:1.0;" x1="282.25" x2="282.25" y1="325.7188" y2="345.7188"/><polygon fill="#181818" points="278.25,335.7188,282.25,345.7188,286.25,335.7188,282.25,339.7188" style="stroke:#181818;stroke-width:1.0;"/><line style="stroke:#181818;stroke-width:1.0;" x1="282.25" x2="282.25" y1="165.875" y2="209.8438"/><polygon fill="#181818" points="278.25,199.8438,282.25,209.8438,286.25,199.8438,282.25,203.8438" style="stroke:#181818;stroke-width:1.0;"/><line style="stroke:#181818;stroke-width:1.0;" x1="282.25" x2="282.25" y1="545.5" y2="570.4844"/><polygon fill="#181818" points="278.25,560.4844,282.25,570.4844,286.25,560.4844,282.25,564.4844" style="stroke:#181818;stroke-width:1.0;"/><line style="stroke:#181818;stroke-width:1.0;" x1="339.25" x2="351.25" y1="531.5313" y2="531.5313"/><polygon fill="#181818" points="347.25,590.4531,351.25,600.4531,355.25,590.4531,351.25,594.4531" style="stroke:#181818;stroke-width:1.0;"/><line style="stroke:#181818;stroke-width:1.0;" x1="351.25" x2="351.25" y1="531.5313" y2="664.3906"/><line style="stroke:#181818;stroke-width:1.0;" x1="351.25" x2="294.25" y1="664.3906" y2="664.3906"/><polygon fill="#181818" points="304.25,660.3906,294.25,664.3906,304.25,668.3906,300.25,664.3906" style="stroke:#181818;stroke-width:1.0;"/><line style="stroke:#181818;stroke-width:1.0;" x1="282.25" x2="282.25" y1="632.3906" y2="652.3906"/><polygon fill="#181818" points="278.25,642.3906,282.25,652.3906,286.25,642.3906,282.25,646.3906" style="stroke:#181818;stroke-width:1.0;"/><line style="stroke:#181818;stroke-width:1.0;" x1="282.25" x2="282.25" y1="497.5625" y2="517.5625"/><polygon fill="#181818" points="278.25,507.5625,282.25,517.5625,286.25,507.5625,282.25,511.5625" style="stroke:#181818;stroke-width:1.0;"/><line style="stroke:#181818;stroke-width:1.0;" x1="111.5" x2="75.5" y1="854.2031" y2="854.2031"/><line style="stroke:#181818;stroke-width:1.0;" x1="75.5" x2="75.5" y1="854.2031" y2="906.1094"/><polygon fill="#181818" points="71.5,896.1094,75.5,906.1094,79.5,896.1094,75.5,900.1094" style="stroke:#181818;stroke-width:1.0;"/><text fill="#000000" font-family="sans-serif" font-size="12" lengthAdjust="spacing" textLength="29" x="75.5" y="884.3105">Easy</text><line style="stroke:#181818;stroke-width:1.0;" x1="221.5" x2="279" y1="854.2031" y2="854.2031"/><line style="stroke:#181818;stroke-width:1.0;" x1="279" x2="279" y1="854.2031" y2="1013.9844"/><line style="stroke:#181818;stroke-width:1.0;" x1="279" x2="178.5" y1="1013.9844" y2="1013.9844"/><polygon fill="#181818" points="188.5,1009.9844,178.5,1013.9844,188.5,1017.9844,184.5,1013.9844" style="stroke:#181818;stroke-width:1.0;"/><text fill="#000000" font-family="sans-serif" font-size="12" lengthAdjust="spacing" textLength="33" x="283" y="858.3574">None</text><line style="stroke:#181818;stroke-width:1.0;" x1="166.5" x2="166.5" y1="868.1719" y2="880.8177"/><line style="stroke:#181818;stroke-width:1.0;" x1="166.5" x2="204.5" y1="880.8177" y2="880.8177"/><line style="stroke:#181818;stroke-width:1.0;" x1="204.5" x2="204.5" y1="880.8177" y2="906.1094"/><polygon fill="#181818" points="200.5,896.1094,204.5,906.1094,208.5,896.1094,204.5,900.1094" style="stroke:#181818;stroke-width:1.0;"/><text fill="#000000" font-family="sans-serif" font-size="12" lengthAdjust="spacing" textLength="30" x="166.5" y="886.2949">Hard</text><line style="stroke:#181818;stroke-width:1.0;" x1="75.5" x2="75.5" y1="968.0156" y2="1013.9844"/><line style="stroke:#181818;stroke-width:1.0;" x1="75.5" x2="154.5" y1="1013.9844" y2="1013.9844"/><polygon fill="#181818" points="144.5,1009.9844,154.5,1013.9844,144.5,1017.9844,148.5,1013.9844" style="stroke:#181818;stroke-width:1.0;"/><line style="stroke:#181818;stroke-width:1.0;" x1="204.5" x2="204.5" y1="968.0156" y2="986.9844"/><line style="stroke:#181818;stroke-width:1.0;" x1="204.5" x2="166.5" y1="986.9844" y2="986.9844"/><line style="stroke:#181818;stroke-width:1.0;" x1="166.5" x2="166.5" y1="986.9844" y2="1001.9844"/><polygon fill="#181818" points="162.5,991.9844,166.5,1001.9844,170.5,991.9844,166.5,995.9844" style="stroke:#181818;stroke-width:1.0;"/><line style="stroke:#181818;stroke-width:1.0;" x1="166.5" x2="166.5" y1="820.2344" y2="840.2344"/><polygon fill="#181818" points="162.5,830.2344,166.5,840.2344,170.5,830.2344,166.5,834.2344" style="stroke:#181818;stroke-width:1.0;"/><line style="stroke:#181818;stroke-width:1.0;" x1="401.5" x2="386.5" y1="854.2031" y2="854.2031"/><line style="stroke:#181818;stroke-width:1.0;" x1="386.5" x2="386.5" y1="854.2031" y2="920.0781"/><polygon fill="#181818" points="382.5,910.0781,386.5,920.0781,390.5,910.0781,386.5,914.0781" style="stroke:#181818;stroke-width:1.0;"/><text fill="#000000" font-family="sans-serif" font-size="12" lengthAdjust="spacing" textLength="22" x="386.5" y="891.2949">Yes</text><line style="stroke:#181818;stroke-width:1.0;" x1="511.5" x2="526.5" y1="854.2031" y2="854.2031"/><line style="stroke:#181818;stroke-width:1.0;" x1="526.5" x2="526.5" y1="854.2031" y2="1027.9531"/><line style="stroke:#181818;stroke-width:1.0;" x1="526.5" x2="468.5" y1="1027.9531" y2="1027.9531"/><polygon fill="#181818" points="478.5,1023.9531,468.5,1027.9531,478.5,1031.9531,474.5,1027.9531" style="stroke:#181818;stroke-width:1.0;"/><text fill="#000000" font-family="sans-serif" font-size="12" lengthAdjust="spacing" textLength="17" x="530.5" y="858.3574">No</text><line style="stroke:#181818;stroke-width:1.0;" x1="386.5" x2="386.5" y1="981.9844" y2="1027.9531"/><line style="stroke:#181818;stroke-width:1.0;" x1="386.5" x2="444.5" y1="1027.9531" y2="1027.9531"/><polygon fill="#181818" points="434.5,1023.9531,444.5,1027.9531,434.5,1031.9531,438.5,1027.9531" style="stroke:#181818;stroke-width:1.0;"/><line style="stroke:#181818;stroke-width:1.0;" x1="456.5" x2="456.5" y1="820.2344" y2="840.2344"/><polygon fill="#181818" points="452.5,830.2344,456.5,840.2344,460.5,830.2344,456.5,834.2344" style="stroke:#181818;stroke-width:1.0;"/><line style="stroke:#181818;stroke-width:1.0;" x1="213.25" x2="166.5" y1="708.3906" y2="708.3906"/><line style="stroke:#181818;stroke-width:1.0;" x1="166.5" x2="166.5" y1="708.3906" y2="758.3281"/><polygon fill="#181818" points="162.5,748.3281,166.5,758.3281,170.5,748.3281,166.5,752.3281" style="stroke:#181818;stroke-width:1.0;"/><text fill="#000000" font-family="sans-serif" font-size="12" lengthAdjust="spacing" textLength="48" x="166.5" y="737.5137">Internal</text><line style="stroke:#181818;stroke-width:1.0;" x1="351.25" x2="456.5" y1="708.3906" y2="708.3906"/><line style="stroke:#181818;stroke-width:1.0;" x1="456.5" x2="456.5" y1="708.3906" y2="758.3281"/><polygon fill="#181818" points="452.5,748.3281,456.5,758.3281,460.5,748.3281,456.5,752.3281" style="stroke:#181818;stroke-width:1.0;"/><text fill="#000000" font-family="sans-serif" font-size="12" lengthAdjust="spacing" textLength="51" x="456.5" y="737.5137">External</text><line style="stroke:#181818;stroke-width:1.0;" x1="166.5" x2="166.5" y1="1025.9844" y2="1061.9531"/><line style="stroke:#181818;stroke-width:1.0;" x1="166.5" x2="270.25" y1="1061.9531" y2="1061.9531"/><polygon fill="#181818" points="260.25,1057.9531,270.25,1061.9531,260.25,1065.9531,264.25,1061.9531" style="stroke:#181818;stroke-width:1.0;"/><line style="stroke:#181818;stroke-width:1.0;" x1="456.5" x2="456.5" y1="1039.9531" y2="1061.9531"/><line style="stroke:#181818;stroke-width:1.0;" x1="456.5" x2="294.25" y1="1061.9531" y2="1061.9531"/><polygon fill="#181818" points="304.25,1057.9531,294.25,1061.9531,304.25,1065.9531,300.25,1061.9531" style="stroke:#181818;stroke-width:1.0;"/><line style="stroke:#181818;stroke-width:1.0;" x1="282.25" x2="282.25" y1="676.3906" y2="696.3906"/><polygon fill="#181818" points="278.25,686.3906,282.25,696.3906,286.25,686.3906,282.25,690.3906" style="stroke:#181818;stroke-width:1.0;"/><line style="stroke:#181818;stroke-width:1.0;" x1="282.25" x2="282.25" y1="1073.9531" y2="1093.9531"/><polygon fill="#181818" points="278.25,1083.9531,282.25,1093.9531,286.25,1083.9531,282.25,1087.9531" style="stroke:#181818;stroke-width:1.0;"/><line style="stroke:#181818;stroke-width:1.0;" x1="282.25" x2="282.25" y1="393.6563" y2="449.625"/><polygon fill="#181818" points="278.25,439.625,282.25,449.625,286.25,439.625,282.25,443.625" style="stroke:#181818;stroke-width:1.0;"/><line style="stroke:#181818;stroke-width:1.0;" x1="282.25" x2="282.25" y1="1141.8906" y2="1173.8906"/><polygon fill="#181818" points="278.25,1163.8906,282.25,1173.8906,286.25,1163.8906,282.25,1167.8906" style="stroke:#181818;stroke-width:1.0;"/><line style="stroke:#181818;stroke-width:1.0;" x1="282.25" x2="282.25" y1="1289.7969" y2="1314.7813"/><polygon fill="#181818" points="278.25,1304.7813,282.25,1314.7813,286.25,1304.7813,282.25,1308.7813" style="stroke:#181818;stroke-width:1.0;"/><line style="stroke:#181818;stroke-width:1.0;" x1="350.75" x2="362.75" y1="1277.7969" y2="1277.7969"/><polygon fill="#181818" points="358.75,1321.7656,362.75,1331.7656,366.75,1321.7656,362.75,1325.7656" style="stroke:#181818;stroke-width:1.0;"/><line style="stroke:#181818;stroke-width:1.0;" x1="362.75" x2="362.75" y1="1277.7969" y2="1380.75"/><line style="stroke:#181818;stroke-width:1.0;" x1="362.75" x2="294.25" y1="1380.75" y2="1380.75"/><polygon fill="#181818" points="304.25,1376.75,294.25,1380.75,304.25,1384.75,300.25,1380.75" style="stroke:#181818;stroke-width:1.0;"/><line style="stroke:#181818;stroke-width:1.0;" x1="282.25" x2="282.25" y1="1348.75" y2="1368.75"/><polygon fill="#181818" points="278.25,1358.75,282.25,1368.75,286.25,1358.75,282.25,1362.75" style="stroke:#181818;stroke-width:1.0;"/><line style="stroke:#181818;stroke-width:1.0;" x1="282.25" x2="282.25" y1="1392.75" y2="1412.75"/><polygon fill="#181818" points="278.25,1402.75,282.25,1412.75,286.25,1402.75,282.25,1406.75" style="stroke:#181818;stroke-width:1.0;"/><line style="stroke:#181818;stroke-width:1.0;" x1="282.25" x2="282.25" y1="1460.6875" y2="1480.6875"/><polygon fill="#181818" points="278.25,1470.6875,282.25,1480.6875,286.25,1470.6875,282.25,1474.6875" style="stroke:#181818;stroke-width:1.0;"/><line style="stroke:#181818;stroke-width:1.0;" x1="282.25" x2="282.25" y1="1542.5938" y2="1562.5938"/><polygon fill="#181818" points="278.25,1552.5938,282.25,1562.5938,286.25,1552.5938,282.25,1556.5938" style="stroke:#181818;stroke-width:1.0;"/><line style="stroke:#181818;stroke-width:1.0;" x1="282.25" x2="282.25" y1="1221.8281" y2="1265.7969"/><polygon fill="#181818" points="278.25,1255.7969,282.25,1265.7969,286.25,1255.7969,282.25,1259.7969" style="stroke:#181818;stroke-width:1.0;"/><line style="stroke:#181818;stroke-width:1.0;" x1="282.25" x2="282.25" y1="1610.5313" y2="1642.5313"/><polygon fill="#181818" points="278.25,1632.5313,282.25,1642.5313,286.25,1632.5313,282.25,1636.5313" style="stroke:#181818;stroke-width:1.0;"/><!--SRC=[fLJTRvim47_dhpYfqWHicTGz5arLicHRf2chyg5fKbySEC2AOoFRfCcc_Uyz0ocKBj7IyH02zls-kBFPS5ampROmZ2tVSNiOSxPLCXcnU9DfLShaan9AmxeqNA8ndZbLyLb9k-2_4Au_T3RDbCK-rbPH8RDSoSx6CQQi57Q9UpiKF9DRb1PY-a7TWtk-HM1gNy9qnNZ6Ccszcp3yCRqBmtjfbMK2tdw4wwZpTeun5avKiq9ubbVFReNl49XCOA6qXT_UbT9npXEgNY3HkFgrKgGY6t09H9YcaIT9B6YUvVO6ShgXiU2lvbycisK0XUPAKthULS44PXfH4jeO1JiuDBzBQeWqY3gaSnJ8p0dQFntfetRr5Q8N1SQSKXwiYInf9VCK_3kDWxRwNdAv8tyygxxhRG0sHmd-0KtW0LqdN9v58Sie388lLU2XJ7ZgcGTkunpyepAAfjGntWPUpDpEgUiNoSHPqZQKTuwngOYgaYF1C4cg19buOQtQLzDDc3dKpsVefjroOWIYV0_eIgCErbUcarTYvQwqYpLJ4ciiYgssr0GqsLyQ4Ex_8w2Vn-z_YQSUuz5Itr3xxvy7us_JFkXD-uWvVsxi4XGqWPecnpNyIcVkl35DvprlyRPFAwFVtFoOpM4jIYJE2Z8CdsfDrBJpnHDPdnv0UevOm4tpbgARVryjfxF9qwI28etwWHlq-fh6jRdwF8Iuj8EoeEpzDw3Hbbg2rRouvD0nLXMF]--></g></svg>