<?xml version="1.0" encoding="UTF-8" standalone="no"?>
<!DOCTYPE svg PUBLIC "-//W3C//DTD SVG 1.1//EN"
 "http://www.w3.org/Graphics/SVG/1.1/DTD/svg11.dtd">
<!-- Generated by graphviz version 2.47.0 (20210316.0004)
 -->
<!-- Title: dbml Pages: 1 -->
<svg width="983pt" height="692pt"
 viewBox="0.00 0.00 983.04 692.48" xmlns="http://www.w3.org/2000/svg" xmlns:xlink="http://www.w3.org/1999/xlink">
<g id="graph0" class="graph" transform="scale(1 1) rotate(0) translate(4 688.48)">
<title>dbml</title>
<!-- scenarios -->
<g id="scenarios" class="node">
<title>scenarios</title>
<ellipse fill="none" stroke="black" stroke-width="0" cx="246.07" cy="-342.24" rx="246.15" ry="342.48"/>
<polygon fill="#1d71b8" stroke="transparent" points="74.07,-522.24 74.07,-582.24 418.07,-582.24 418.07,-522.24 74.07,-522.24"/>
<polygon fill="none" stroke="#29235c" points="74.07,-522.24 74.07,-582.24 418.07,-582.24 418.07,-522.24 74.07,-522.24"/>
<text text-anchor="start" x="115.37" y="-543.44" font-family="Helvetica,sans-Serif" font-weight="bold" font-size="32.00" fill="#ffffff"> &#160;&#160;&#160;&#160;&#160;&#160;scenarios &#160;&#160;&#160;&#160;&#160;&#160;</text>
<polygon fill="#e7e2dd" stroke="transparent" points="74.07,-462.24 74.07,-522.24 418.07,-522.24 418.07,-462.24 74.07,-462.24"/>
<polygon fill="none" stroke="#29235c" points="74.07,-462.24 74.07,-522.24 418.07,-522.24 418.07,-462.24 74.07,-462.24"/>
<text text-anchor="start" x="85.07" y="-483.44" font-family="Helvetica,sans-Serif" font-weight="bold" font-size="32.00" fill="#29235c">scenario_id</text>
<text text-anchor="start" x="248.66" y="-483.44" font-family="Helvetica,sans-Serif" font-size="32.00" fill="#29235c"> &#160;&#160;&#160;</text>
<text text-anchor="start" x="309.27" y="-483.44" font-family="Helvetica,sans-Serif" font-style="italic" font-size="32.00" fill="#29235c">integer</text>
<polygon fill="#e7e2dd" stroke="transparent" points="74.07,-402.24 74.07,-462.24 418.07,-462.24 418.07,-402.24 74.07,-402.24"/>
<polygon fill="none" stroke="#29235c" points="74.07,-402.24 74.07,-462.24 418.07,-462.24 418.07,-402.24 74.07,-402.24"/>
<text text-anchor="start" x="85.07" y="-423.44" font-family="Helvetica,sans-Serif" font-size="32.00" fill="#29235c">analysis_id</text>
<text text-anchor="start" x="243.32" y="-423.44" font-family="Helvetica,sans-Serif" font-size="32.00" fill="#29235c"> &#160;&#160;&#160;</text>
<text text-anchor="start" x="309.27" y="-423.44" font-family="Helvetica,sans-Serif" font-style="italic" font-size="32.00" fill="#29235c">integer</text>
<polygon fill="#e7e2dd" stroke="transparent" points="74.07,-342.24 74.07,-402.24 418.07,-402.24 418.07,-342.24 74.07,-342.24"/>
<polygon fill="none" stroke="#29235c" points="74.07,-342.24 74.07,-402.24 418.07,-402.24 418.07,-342.24 74.07,-342.24"/>
<text text-anchor="start" x="85.07" y="-363.44" font-family="Helvetica,sans-Serif" font-size="32.00" fill="#29235c">created</text>
<text text-anchor="start" x="191.77" y="-363.44" font-family="Helvetica,sans-Serif" font-size="32.00" fill="#29235c"> &#160;&#160;&#160;</text>
<text text-anchor="start" x="314.65" y="-363.44" font-family="Helvetica,sans-Serif" font-style="italic" font-size="32.00" fill="#29235c">real</text>
<text text-anchor="start" x="367.98" y="-363.44" font-family="Helvetica,sans-Serif" font-size="32.00" fill="#29235c"> </text>
<text text-anchor="start" x="376.87" y="-363.44" font-family="Helvetica,sans-Serif" font-weight="bold" font-size="32.00" fill="#29235c">(!)</text>
<polygon fill="#e7e2dd" stroke="transparent" points="74.07,-282.24 74.07,-342.24 418.07,-342.24 418.07,-282.24 74.07,-282.24"/>
<polygon fill="none" stroke="#29235c" points="74.07,-282.24 74.07,-342.24 418.07,-342.24 418.07,-282.24 74.07,-282.24"/>
<text text-anchor="start" x="85.07" y="-303.44" font-family="Helvetica,sans-Serif" font-size="32.00" fill="#29235c">completed</text>
<text text-anchor="start" x="232.66" y="-303.44" font-family="Helvetica,sans-Serif" font-size="32.00" fill="#29235c"> &#160;&#160;&#160;</text>
<text text-anchor="start" x="353.74" y="-303.44" font-family="Helvetica,sans-Serif" font-style="italic" font-size="32.00" fill="#29235c">real</text>
<polygon fill="#e7e2dd" stroke="transparent" points="74.07,-222.24 74.07,-282.24 418.07,-282.24 418.07,-222.24 74.07,-222.24"/>
<polygon fill="none" stroke="#29235c" points="74.07,-222.24 74.07,-282.24 418.07,-282.24 418.07,-222.24 74.07,-222.24"/>
<text text-anchor="start" x="85.07" y="-243.44" font-family="Helvetica,sans-Serif" font-size="32.00" fill="#29235c">num_reps</text>
<text text-anchor="start" x="227.32" y="-243.44" font-family="Helvetica,sans-Serif" font-size="32.00" fill="#29235c"> &#160;&#160;&#160;</text>
<text text-anchor="start" x="270.18" y="-243.44" font-family="Helvetica,sans-Serif" font-style="italic" font-size="32.00" fill="#29235c">integer</text>
<text text-anchor="start" x="367.98" y="-243.44" font-family="Helvetica,sans-Serif" font-size="32.00" fill="#29235c"> </text>
<text text-anchor="start" x="376.87" y="-243.44" font-family="Helvetica,sans-Serif" font-weight="bold" font-size="32.00" fill="#29235c">(!)</text>
<polygon fill="#e7e2dd" stroke="transparent" points="74.07,-162.24 74.07,-222.24 418.07,-222.24 418.07,-162.24 74.07,-162.24"/>
<polygon fill="none" stroke="#29235c" points="74.07,-162.24 74.07,-222.24 418.07,-222.24 418.07,-162.24 74.07,-162.24"/>
<text text-anchor="start" x="84.7" y="-183.44" font-family="Helvetica,sans-Serif" font-size="32.00" fill="#29235c">done_reps</text>
<text text-anchor="start" x="235.87" y="-183.44" font-family="Helvetica,sans-Serif" font-size="32.00" fill="#29235c"> &#160;&#160;&#160;</text>
<text text-anchor="start" x="270.63" y="-183.44" font-family="Helvetica,sans-Serif" font-style="italic" font-size="32.00" fill="#29235c">integer</text>
<text text-anchor="start" x="368.43" y="-183.44" font-family="Helvetica,sans-Serif" font-size="32.00" fill="#29235c"> </text>
<text text-anchor="start" x="377.32" y="-183.44" font-family="Helvetica,sans-Serif" font-weight="bold" font-size="32.00" fill="#29235c">(!)</text>
<polygon fill="#e7e2dd" stroke="transparent" points="74.07,-102.24 74.07,-162.24 418.07,-162.24 418.07,-102.24 74.07,-102.24"/>
<polygon fill="none" stroke="#29235c" points="74.07,-102.24 74.07,-162.24 418.07,-162.24 418.07,-102.24 74.07,-102.24"/>
<text text-anchor="start" x="85.07" y="-123.44" font-family="Helvetica,sans-Serif" font-size="32.00" fill="#29235c">results</text>
<text text-anchor="start" x="179.3" y="-123.44" font-family="Helvetica,sans-Serif" font-size="32.00" fill="#29235c"> &#160;&#160;&#160;</text>
<text text-anchor="start" x="355.5" y="-123.44" font-family="Helvetica,sans-Serif" font-style="italic" font-size="32.00" fill="#29235c">text</text>
<polygon fill="none" stroke="#29235c" stroke-width="2" points="73.07,-101.24 73.07,-583.24 419.07,-583.24 419.07,-101.24 73.07,-101.24"/>
</g>
<!-- multis -->
<g id="multis" class="node">
<title>multis</title>
<ellipse fill="none" stroke="black" stroke-width="0" cx="751.59" cy="-522.24" rx="223.39" ry="87.86"/>
<polygon fill="#1d71b8" stroke="transparent" points="595.59,-522.24 595.59,-582.24 907.59,-582.24 907.59,-522.24 595.59,-522.24"/>
<polygon fill="none" stroke="#29235c" points="595.59,-522.24 595.59,-582.24 907.59,-582.24 907.59,-522.24 595.59,-522.24"/>
<text text-anchor="start" x="647.57" y="-543.44" font-family="Helvetica,sans-Serif" font-weight="bold" font-size="32.00" fill="#ffffff"> &#160;&#160;&#160;&#160;&#160;&#160;multis &#160;&#160;&#160;&#160;&#160;&#160;</text>
<polygon fill="#e7e2dd" stroke="transparent" points="595.59,-462.24 595.59,-522.24 907.59,-522.24 907.59,-462.24 595.59,-462.24"/>
<polygon fill="none" stroke="#29235c" points="595.59,-462.24 595.59,-522.24 907.59,-522.24 907.59,-462.24 595.59,-462.24"/>
<text text-anchor="start" x="606.18" y="-483.44" font-family="Helvetica,sans-Serif" font-weight="bold" font-size="32.00" fill="#29235c">analysis_id</text>
<text text-anchor="start" x="764.43" y="-483.44" font-family="Helvetica,sans-Serif" font-size="32.00" fill="#29235c"> &#160;&#160;&#160;</text>
<text text-anchor="start" x="799.19" y="-483.44" font-family="Helvetica,sans-Serif" font-style="italic" font-size="32.00" fill="#29235c">integer</text>
<polygon fill="none" stroke="#29235c" stroke-width="2" points="594.59,-461.24 594.59,-583.24 908.59,-583.24 908.59,-461.24 594.59,-461.24"/>
</g>
<!-- scenarios&#45;&gt;multis -->
<!-- scenarios&#45;&gt;multis -->
<g id="edge2" class="edge">
<title>scenarios:e&#45;&gt;multis:w</title>
<path fill="none" stroke="#29235c" stroke-width="3" d="M419.07,-432.24C497.97,-432.24 511.1,-487.19 584.35,-491.92"/>
<polygon fill="#29235c" stroke="#29235c" stroke-width="3" points="584.49,-495.42 594.59,-492.24 584.71,-488.43 584.49,-495.42"/>
<text text-anchor="middle" x="585.7" y="-501.84" font-family="Helvetica,sans-Serif" font-size="32.00" fill="#29235c">1</text>
<text text-anchor="middle" x="425.3" y="-441.84" font-family="Helvetica,sans-Serif" font-size="32.00" fill="#29235c">*</text>
</g>
</g>
</svg>

